<mxfile host="app.diagrams.net" modified="2023-08-01T17:45:20.655Z" agent="Mozilla/5.0 (Windows NT 10.0; Win64; x64) AppleWebKit/537.36 (KHTML, like Gecko) Chrome/115.0.0.0 Safari/537.36" etag="2DRY4ZIQWG-zqgEgzt7Q" version="21.6.6" type="github">
  <diagram id="R2lEEEUBdFMjLlhIrx00" name="Page-1">
    <mxGraphModel dx="2440" dy="1315" grid="1" gridSize="10" guides="1" tooltips="1" connect="1" arrows="1" fold="1" page="1" pageScale="1" pageWidth="1169" pageHeight="827" math="0" shadow="0" extFonts="Permanent Marker^https://fonts.googleapis.com/css?family=Permanent+Marker">
      <root>
        <mxCell id="0" />
        <mxCell id="1" parent="0" />
        <mxCell id="1GqtW3D0vnaD6hVMnLZm-1" value="SCUOLA" style="rounded=0;whiteSpace=wrap;html=1;" parent="1" vertex="1">
          <mxGeometry x="1640" y="280" width="160" height="80" as="geometry" />
        </mxCell>
        <mxCell id="1GqtW3D0vnaD6hVMnLZm-3" value="PERSONA" style="rounded=0;whiteSpace=wrap;html=1;" parent="1" vertex="1">
          <mxGeometry x="500" y="280" width="160" height="80" as="geometry" />
        </mxCell>
        <mxCell id="1GqtW3D0vnaD6hVMnLZm-5" value="E&#39; REFERENTE" style="rhombus;whiteSpace=wrap;html=1;" parent="1" vertex="1">
          <mxGeometry x="1141" y="280" width="80" height="80" as="geometry" />
        </mxCell>
        <mxCell id="1GqtW3D0vnaD6hVMnLZm-8" value="CLASSE" style="rounded=0;whiteSpace=wrap;html=1;" parent="1" vertex="1">
          <mxGeometry x="1129" y="500" width="160" height="80" as="geometry" />
        </mxCell>
        <mxCell id="1GqtW3D0vnaD6hVMnLZm-12" value="ORTO" style="rounded=0;whiteSpace=wrap;html=1;" parent="1" vertex="1">
          <mxGeometry x="1660" y="795" width="160" height="80" as="geometry" />
        </mxCell>
        <mxCell id="1GqtW3D0vnaD6hVMnLZm-16" value="" style="endArrow=none;html=1;rounded=0;exitX=0;exitY=0.5;exitDx=0;exitDy=0;entryX=1;entryY=0.5;entryDx=0;entryDy=0;" parent="1" source="1GqtW3D0vnaD6hVMnLZm-1" target="1GqtW3D0vnaD6hVMnLZm-5" edge="1">
          <mxGeometry width="50" height="50" relative="1" as="geometry">
            <mxPoint x="1400" y="400" as="sourcePoint" />
            <mxPoint x="1400" y="320" as="targetPoint" />
          </mxGeometry>
        </mxCell>
        <mxCell id="1GqtW3D0vnaD6hVMnLZm-17" value="" style="endArrow=none;html=1;rounded=0;exitX=0;exitY=0.5;exitDx=0;exitDy=0;entryX=1;entryY=0.5;entryDx=0;entryDy=0;" parent="1" source="1GqtW3D0vnaD6hVMnLZm-5" target="1GqtW3D0vnaD6hVMnLZm-3" edge="1">
          <mxGeometry width="50" height="50" relative="1" as="geometry">
            <mxPoint x="1210" y="390" as="sourcePoint" />
            <mxPoint x="1210" y="310" as="targetPoint" />
          </mxGeometry>
        </mxCell>
        <mxCell id="1GqtW3D0vnaD6hVMnLZm-21" value="REPLICA" style="rounded=0;whiteSpace=wrap;html=1;" parent="1" vertex="1">
          <mxGeometry x="1129" y="929.5" width="160" height="80" as="geometry" />
        </mxCell>
        <mxCell id="9_35HUgDkUIat2iefjqO-1" value="RILEVAZIONE" style="rounded=0;whiteSpace=wrap;html=1;" parent="1" vertex="1">
          <mxGeometry x="337.5" y="704.5" width="160" height="80" as="geometry" />
        </mxCell>
        <mxCell id="9_35HUgDkUIat2iefjqO-9" value="DISPOSITIVO" style="rounded=0;whiteSpace=wrap;html=1;" parent="1" vertex="1">
          <mxGeometry x="690" y="930" width="160" height="80" as="geometry" />
        </mxCell>
        <mxCell id="9_35HUgDkUIat2iefjqO-20" value="&lt;font style=&quot;font-size: 18px;&quot;&gt;CodP&lt;/font&gt;" style="text;html=1;strokeColor=none;fillColor=none;align=center;verticalAlign=middle;whiteSpace=wrap;rounded=0;" parent="1" vertex="1">
          <mxGeometry x="340" y="300" width="60" height="40" as="geometry" />
        </mxCell>
        <mxCell id="9_35HUgDkUIat2iefjqO-26" value="" style="endArrow=none;html=1;rounded=0;entryX=0;entryY=1;entryDx=0;entryDy=0;" parent="1" source="9_35HUgDkUIat2iefjqO-19" edge="1">
          <mxGeometry width="50" height="50" relative="1" as="geometry">
            <mxPoint x="420" y="320" as="sourcePoint" />
            <mxPoint x="500" y="320" as="targetPoint" />
          </mxGeometry>
        </mxCell>
        <mxCell id="9_35HUgDkUIat2iefjqO-27" value="" style="ellipse;whiteSpace=wrap;html=1;fillColor=#FFFFFF;direction=south;gradientColor=none;" parent="1" vertex="1">
          <mxGeometry x="400" y="270" width="20" height="20" as="geometry" />
        </mxCell>
        <mxCell id="9_35HUgDkUIat2iefjqO-28" value="" style="endArrow=none;html=1;rounded=0;exitX=0.5;exitY=0;exitDx=0;exitDy=0;" parent="1" source="9_35HUgDkUIat2iefjqO-27" edge="1">
          <mxGeometry width="50" height="50" relative="1" as="geometry">
            <mxPoint x="420" y="330" as="sourcePoint" />
            <mxPoint x="500" y="280" as="targetPoint" />
          </mxGeometry>
        </mxCell>
        <mxCell id="9_35HUgDkUIat2iefjqO-29" value="&lt;span style=&quot;font-size: 18px;&quot;&gt;Nome&lt;/span&gt;" style="text;html=1;strokeColor=none;fillColor=none;align=center;verticalAlign=middle;whiteSpace=wrap;rounded=0;" parent="1" vertex="1">
          <mxGeometry x="340" y="260" width="60" height="40" as="geometry" />
        </mxCell>
        <mxCell id="9_35HUgDkUIat2iefjqO-31" value="" style="endArrow=none;html=1;rounded=0;" parent="1" source="9_35HUgDkUIat2iefjqO-30" edge="1">
          <mxGeometry width="50" height="50" relative="1" as="geometry">
            <mxPoint x="420" y="200" as="sourcePoint" />
            <mxPoint x="500" y="279.40999999999997" as="targetPoint" />
          </mxGeometry>
        </mxCell>
        <mxCell id="9_35HUgDkUIat2iefjqO-32" value="&lt;span style=&quot;font-size: 18px;&quot;&gt;Cognome&lt;/span&gt;" style="text;html=1;strokeColor=none;fillColor=none;align=center;verticalAlign=middle;whiteSpace=wrap;rounded=0;" parent="1" vertex="1">
          <mxGeometry x="340" y="180" width="90" height="40" as="geometry" />
        </mxCell>
        <mxCell id="9_35HUgDkUIat2iefjqO-34" value="" style="ellipse;whiteSpace=wrap;html=1;fillColor=#FFFFFF;direction=south;gradientColor=none;" parent="1" vertex="1">
          <mxGeometry x="490" y="180" width="20" height="20" as="geometry" />
        </mxCell>
        <mxCell id="9_35HUgDkUIat2iefjqO-35" value="" style="endArrow=none;html=1;rounded=0;" parent="1" edge="1">
          <mxGeometry width="50" height="50" relative="1" as="geometry">
            <mxPoint x="500" y="200" as="sourcePoint" />
            <mxPoint x="500" y="278.81999999999994" as="targetPoint" />
          </mxGeometry>
        </mxCell>
        <mxCell id="9_35HUgDkUIat2iefjqO-36" value="&lt;span style=&quot;font-size: 18px;&quot;&gt;Email&lt;/span&gt;" style="text;html=1;strokeColor=none;fillColor=none;align=center;verticalAlign=middle;whiteSpace=wrap;rounded=0;" parent="1" vertex="1">
          <mxGeometry x="445" y="150" width="60" height="40" as="geometry" />
        </mxCell>
        <mxCell id="9_35HUgDkUIat2iefjqO-38" value="" style="endArrow=none;html=1;rounded=0;entryX=0.25;entryY=0;entryDx=0;entryDy=0;" parent="1" source="9_35HUgDkUIat2iefjqO-37" target="1GqtW3D0vnaD6hVMnLZm-3" edge="1">
          <mxGeometry width="50" height="50" relative="1" as="geometry">
            <mxPoint x="540" y="200" as="sourcePoint" />
            <mxPoint x="560" y="219.99999999999994" as="targetPoint" />
          </mxGeometry>
        </mxCell>
        <mxCell id="9_35HUgDkUIat2iefjqO-39" value="&lt;span style=&quot;font-size: 18px;&quot;&gt;Tel&lt;/span&gt;" style="text;html=1;strokeColor=none;fillColor=none;align=center;verticalAlign=middle;whiteSpace=wrap;rounded=0;" parent="1" vertex="1">
          <mxGeometry x="520" y="150" width="40" height="40" as="geometry" />
        </mxCell>
        <mxCell id="9_35HUgDkUIat2iefjqO-40" value="" style="ellipse;whiteSpace=wrap;html=1;fillColor=#FFFFFF;direction=south;gradientColor=none;" parent="1" vertex="1">
          <mxGeometry x="580" y="180" width="20" height="20" as="geometry" />
        </mxCell>
        <mxCell id="9_35HUgDkUIat2iefjqO-41" value="" style="endArrow=none;html=1;rounded=0;exitX=1;exitY=0.5;exitDx=0;exitDy=0;entryX=0;entryY=0;entryDx=0;entryDy=0;" parent="1" source="9_35HUgDkUIat2iefjqO-40" edge="1">
          <mxGeometry width="50" height="50" relative="1" as="geometry">
            <mxPoint x="580" y="219.99999999999994" as="sourcePoint" />
            <mxPoint x="590" y="280" as="targetPoint" />
          </mxGeometry>
        </mxCell>
        <mxCell id="9_35HUgDkUIat2iefjqO-42" value="&lt;span style=&quot;font-size: 18px;&quot;&gt;Ruolo&lt;/span&gt;" style="text;html=1;strokeColor=none;fillColor=none;align=center;verticalAlign=middle;whiteSpace=wrap;rounded=0;" parent="1" vertex="1">
          <mxGeometry x="560" y="150" width="60" height="40" as="geometry" />
        </mxCell>
        <mxCell id="9_35HUgDkUIat2iefjqO-46" value="" style="ellipse;whiteSpace=wrap;html=1;fillColor=#000000;direction=south;" parent="1" vertex="1">
          <mxGeometry x="1565" y="220" width="20" height="20" as="geometry" />
        </mxCell>
        <mxCell id="9_35HUgDkUIat2iefjqO-47" value="" style="endArrow=none;html=1;rounded=0;entryX=1;entryY=0;entryDx=0;entryDy=0;exitX=0;exitY=0;exitDx=0;exitDy=0;" parent="1" source="1GqtW3D0vnaD6hVMnLZm-1" target="9_35HUgDkUIat2iefjqO-46" edge="1">
          <mxGeometry width="50" height="50" relative="1" as="geometry">
            <mxPoint x="1580" y="280" as="sourcePoint" />
            <mxPoint x="1580" y="210" as="targetPoint" />
          </mxGeometry>
        </mxCell>
        <mxCell id="9_35HUgDkUIat2iefjqO-48" value="&lt;font style=&quot;font-size: 18px;&quot;&gt;CodMec&lt;/font&gt;" style="text;html=1;strokeColor=none;fillColor=none;align=center;verticalAlign=middle;whiteSpace=wrap;rounded=0;" parent="1" vertex="1">
          <mxGeometry x="1505" y="185" width="80" height="40" as="geometry" />
        </mxCell>
        <mxCell id="9_35HUgDkUIat2iefjqO-49" value="" style="endArrow=none;html=1;rounded=0;exitX=0.063;exitY=-0.017;exitDx=0;exitDy=0;exitPerimeter=0;" parent="1" source="1GqtW3D0vnaD6hVMnLZm-1" edge="1">
          <mxGeometry width="50" height="50" relative="1" as="geometry">
            <mxPoint x="1800" y="358.82" as="sourcePoint" />
            <mxPoint x="1634" y="210" as="targetPoint" />
          </mxGeometry>
        </mxCell>
        <mxCell id="9_35HUgDkUIat2iefjqO-50" value="" style="ellipse;whiteSpace=wrap;html=1;fillColor=#FFFFFF;direction=south;gradientColor=none;" parent="1" vertex="1">
          <mxGeometry x="1624" y="194.31" width="20" height="20" as="geometry" />
        </mxCell>
        <mxCell id="9_35HUgDkUIat2iefjqO-51" value="&lt;span style=&quot;font-size: 18px;&quot;&gt;Nome&lt;/span&gt;" style="text;html=1;strokeColor=none;fillColor=none;align=center;verticalAlign=middle;whiteSpace=wrap;rounded=0;" parent="1" vertex="1">
          <mxGeometry x="1591" y="160" width="60" height="40" as="geometry" />
        </mxCell>
        <mxCell id="9_35HUgDkUIat2iefjqO-52" value="" style="ellipse;whiteSpace=wrap;html=1;fillColor=#FFFFFF;direction=south;gradientColor=none;" parent="1" vertex="1">
          <mxGeometry x="1670" y="190" width="20" height="20" as="geometry" />
        </mxCell>
        <mxCell id="9_35HUgDkUIat2iefjqO-54" value="" style="endArrow=none;html=1;rounded=0;exitX=0.25;exitY=0;exitDx=0;exitDy=0;entryX=1;entryY=0.5;entryDx=0;entryDy=0;" parent="1" source="1GqtW3D0vnaD6hVMnLZm-1" target="9_35HUgDkUIat2iefjqO-52" edge="1">
          <mxGeometry width="50" height="50" relative="1" as="geometry">
            <mxPoint x="1940" y="355.82" as="sourcePoint" />
            <mxPoint x="1680" y="230" as="targetPoint" />
          </mxGeometry>
        </mxCell>
        <mxCell id="9_35HUgDkUIat2iefjqO-55" value="&lt;span style=&quot;font-size: 18px;&quot;&gt;Prov&lt;/span&gt;" style="text;html=1;strokeColor=none;fillColor=none;align=center;verticalAlign=middle;whiteSpace=wrap;rounded=0;" parent="1" vertex="1">
          <mxGeometry x="1655" y="150" width="50" height="40" as="geometry" />
        </mxCell>
        <mxCell id="9_35HUgDkUIat2iefjqO-57" value="" style="ellipse;whiteSpace=wrap;html=1;fillColor=#FFFFFF;direction=south;gradientColor=none;" parent="1" vertex="1">
          <mxGeometry x="1730" y="190" width="20" height="20" as="geometry" />
        </mxCell>
        <mxCell id="9_35HUgDkUIat2iefjqO-67" value="" style="endArrow=none;html=1;rounded=0;exitX=0.25;exitY=0;exitDx=0;exitDy=0;entryX=1;entryY=0.5;entryDx=0;entryDy=0;" parent="1" edge="1">
          <mxGeometry width="50" height="50" relative="1" as="geometry">
            <mxPoint x="1740" y="280" as="sourcePoint" />
            <mxPoint x="1740" y="210" as="targetPoint" />
          </mxGeometry>
        </mxCell>
        <mxCell id="9_35HUgDkUIat2iefjqO-68" value="&lt;span style=&quot;font-size: 18px;&quot;&gt;CicloIstruz&lt;/span&gt;" style="text;html=1;strokeColor=none;fillColor=none;align=center;verticalAlign=middle;whiteSpace=wrap;rounded=0;" parent="1" vertex="1">
          <mxGeometry x="1729" y="160" width="50" height="40" as="geometry" />
        </mxCell>
        <mxCell id="9_35HUgDkUIat2iefjqO-73" value="" style="ellipse;whiteSpace=wrap;html=1;fillColor=#FFFFFF;direction=south;gradientColor=none;" parent="1" vertex="1">
          <mxGeometry x="1789" y="195" width="20" height="20" as="geometry" />
        </mxCell>
        <mxCell id="9_35HUgDkUIat2iefjqO-74" value="" style="endArrow=none;html=1;rounded=0;exitX=0.25;exitY=0;exitDx=0;exitDy=0;" parent="1" target="9_35HUgDkUIat2iefjqO-73" edge="1">
          <mxGeometry width="50" height="50" relative="1" as="geometry">
            <mxPoint x="1798.82" y="280" as="sourcePoint" />
            <mxPoint x="1830" y="220" as="targetPoint" />
          </mxGeometry>
        </mxCell>
        <mxCell id="9_35HUgDkUIat2iefjqO-76" value="&lt;span style=&quot;font-size: 18px;&quot;&gt;Finanziamento&lt;/span&gt;" style="text;html=1;strokeColor=none;fillColor=none;align=center;verticalAlign=middle;whiteSpace=wrap;rounded=0;" parent="1" vertex="1">
          <mxGeometry x="1850" y="180" width="50" height="40" as="geometry" />
        </mxCell>
        <mxCell id="sEJmzOU2EiKCbzuNRIoM-1" value="" style="endArrow=none;html=1;rounded=0;entryX=0.25;entryY=0;entryDx=0;entryDy=0;" parent="1" target="9_35HUgDkUIat2iefjqO-37" edge="1">
          <mxGeometry width="50" height="50" relative="1" as="geometry">
            <mxPoint x="540" y="200" as="sourcePoint" />
            <mxPoint x="540" y="280" as="targetPoint" />
          </mxGeometry>
        </mxCell>
        <mxCell id="9_35HUgDkUIat2iefjqO-37" value="" style="ellipse;whiteSpace=wrap;html=1;fillColor=#FFFFFF;direction=south;gradientColor=none;" parent="1" vertex="1">
          <mxGeometry x="530" y="180" width="20" height="20" as="geometry" />
        </mxCell>
        <mxCell id="sEJmzOU2EiKCbzuNRIoM-5" value="" style="endArrow=none;html=1;rounded=0;entryX=0;entryY=1;entryDx=0;entryDy=0;" parent="1" target="9_35HUgDkUIat2iefjqO-19" edge="1">
          <mxGeometry width="50" height="50" relative="1" as="geometry">
            <mxPoint x="420" y="320" as="sourcePoint" />
            <mxPoint x="500" y="320" as="targetPoint" />
          </mxGeometry>
        </mxCell>
        <mxCell id="9_35HUgDkUIat2iefjqO-19" value="" style="ellipse;whiteSpace=wrap;html=1;fillColor=#000000;direction=south;" parent="1" vertex="1">
          <mxGeometry x="400" y="310" width="20" height="20" as="geometry" />
        </mxCell>
        <mxCell id="9_35HUgDkUIat2iefjqO-30" value="" style="ellipse;whiteSpace=wrap;html=1;fillColor=#FFFFFF;direction=south;gradientColor=none;" parent="1" vertex="1">
          <mxGeometry x="425" y="210" width="20" height="20" as="geometry" />
        </mxCell>
        <mxCell id="RJAvJlLTRPXdLiwuO2cF-4" value="&lt;font style=&quot;font-size: 18px;&quot;&gt;CodC&lt;/font&gt;" style="text;html=1;strokeColor=none;fillColor=none;align=center;verticalAlign=middle;whiteSpace=wrap;rounded=0;" parent="1" vertex="1">
          <mxGeometry x="1063.5" y="428.5" width="60" height="24" as="geometry" />
        </mxCell>
        <mxCell id="RJAvJlLTRPXdLiwuO2cF-8" value="" style="endArrow=none;html=1;rounded=0;" parent="1" edge="1">
          <mxGeometry width="50" height="50" relative="1" as="geometry">
            <mxPoint x="1190" y="500" as="sourcePoint" />
            <mxPoint x="1190" y="440" as="targetPoint" />
          </mxGeometry>
        </mxCell>
        <mxCell id="RJAvJlLTRPXdLiwuO2cF-9" value="&lt;font style=&quot;font-size: 18px;&quot;&gt;Ordine&lt;/font&gt;" style="text;html=1;strokeColor=none;fillColor=none;align=center;verticalAlign=middle;whiteSpace=wrap;rounded=0;" parent="1" vertex="1">
          <mxGeometry x="1155" y="394.44" width="60" height="30" as="geometry" />
        </mxCell>
        <mxCell id="RJAvJlLTRPXdLiwuO2cF-11" value="" style="endArrow=none;html=1;rounded=0;exitX=0.694;exitY=-0.01;exitDx=0;exitDy=0;exitPerimeter=0;" parent="1" source="1GqtW3D0vnaD6hVMnLZm-8" target="mI0G9RqRu6ml6arS59rm-14" edge="1">
          <mxGeometry width="50" height="50" relative="1" as="geometry">
            <mxPoint x="1216" y="499" as="sourcePoint" />
            <mxPoint x="1216" y="436" as="targetPoint" />
          </mxGeometry>
        </mxCell>
        <mxCell id="RJAvJlLTRPXdLiwuO2cF-13" value="&lt;font style=&quot;font-size: 18px;&quot;&gt;TipoScuola&lt;/font&gt;" style="text;html=1;strokeColor=none;fillColor=none;align=center;verticalAlign=middle;whiteSpace=wrap;rounded=0;" parent="1" vertex="1">
          <mxGeometry x="1250.5" y="399.44" width="60" height="30" as="geometry" />
        </mxCell>
        <mxCell id="RJAvJlLTRPXdLiwuO2cF-17" value="" style="endArrow=none;html=1;rounded=0;exitX=0.199;exitY=0.005;exitDx=0;exitDy=0;exitPerimeter=0;" parent="1" source="1GqtW3D0vnaD6hVMnLZm-8" target="RJAvJlLTRPXdLiwuO2cF-2" edge="1">
          <mxGeometry width="50" height="50" relative="1" as="geometry">
            <mxPoint x="1114" y="499.99999999999994" as="sourcePoint" />
            <mxPoint x="1042.56" y="457.44" as="targetPoint" />
          </mxGeometry>
        </mxCell>
        <mxCell id="RJAvJlLTRPXdLiwuO2cF-2" value="" style="ellipse;whiteSpace=wrap;html=1;aspect=fixed;fillColor=#000000;" parent="1" vertex="1">
          <mxGeometry x="1121" y="440" width="20" height="20" as="geometry" />
        </mxCell>
        <mxCell id="OYPGstpTxhAQt0Nlltqd-1" value="" style="endArrow=none;html=1;rounded=0;entryX=0.005;entryY=0.927;entryDx=0;entryDy=0;entryPerimeter=0;" parent="1" source="OYPGstpTxhAQt0Nlltqd-2" target="9_35HUgDkUIat2iefjqO-1" edge="1">
          <mxGeometry width="50" height="50" relative="1" as="geometry">
            <mxPoint x="257.5" y="784.5" as="sourcePoint" />
            <mxPoint x="337.5" y="784.5" as="targetPoint" />
          </mxGeometry>
        </mxCell>
        <mxCell id="OYPGstpTxhAQt0Nlltqd-2" value="" style="ellipse;whiteSpace=wrap;html=1;fillColor=#000000;direction=south;" parent="1" vertex="1">
          <mxGeometry x="237.5" y="770" width="20" height="20" as="geometry" />
        </mxCell>
        <mxCell id="OYPGstpTxhAQt0Nlltqd-3" value="&lt;font style=&quot;font-size: 18px;&quot;&gt;CodR&lt;/font&gt;" style="text;html=1;strokeColor=none;fillColor=none;align=center;verticalAlign=middle;whiteSpace=wrap;rounded=0;" parent="1" vertex="1">
          <mxGeometry x="177.5" y="764.5" width="60" height="40" as="geometry" />
        </mxCell>
        <mxCell id="OYPGstpTxhAQt0Nlltqd-8" value="" style="endArrow=none;html=1;rounded=0;exitX=0.5;exitY=0;exitDx=0;exitDy=0;" parent="1" edge="1">
          <mxGeometry width="50" height="50" relative="1" as="geometry">
            <mxPoint x="257.5" y="744" as="sourcePoint" />
            <mxPoint x="337.5" y="744" as="targetPoint" />
          </mxGeometry>
        </mxCell>
        <mxCell id="OYPGstpTxhAQt0Nlltqd-9" value="" style="ellipse;whiteSpace=wrap;html=1;fillColor=#FFFFFF;direction=south;gradientColor=none;" parent="1" vertex="1">
          <mxGeometry x="237.5" y="734.5" width="20" height="20" as="geometry" />
        </mxCell>
        <mxCell id="OYPGstpTxhAQt0Nlltqd-10" value="&lt;span style=&quot;font-size: 18px;&quot;&gt;DataRil&lt;/span&gt;" style="text;html=1;strokeColor=none;fillColor=none;align=center;verticalAlign=middle;whiteSpace=wrap;rounded=0;" parent="1" vertex="1">
          <mxGeometry x="157.5" y="724.5" width="80" height="40" as="geometry" />
        </mxCell>
        <mxCell id="OYPGstpTxhAQt0Nlltqd-11" value="" style="endArrow=none;html=1;rounded=0;exitX=0.5;exitY=0;exitDx=0;exitDy=0;" parent="1" edge="1">
          <mxGeometry width="50" height="50" relative="1" as="geometry">
            <mxPoint x="257.5" y="704.5" as="sourcePoint" />
            <mxPoint x="337.5" y="704.5" as="targetPoint" />
          </mxGeometry>
        </mxCell>
        <mxCell id="OYPGstpTxhAQt0Nlltqd-12" value="" style="ellipse;whiteSpace=wrap;html=1;fillColor=#FFFFFF;direction=south;gradientColor=none;" parent="1" vertex="1">
          <mxGeometry x="237.5" y="694.5" width="20" height="20" as="geometry" />
        </mxCell>
        <mxCell id="OYPGstpTxhAQt0Nlltqd-13" value="&lt;span style=&quot;font-size: 18px;&quot;&gt;DataIns&lt;/span&gt;" style="text;html=1;strokeColor=none;fillColor=none;align=center;verticalAlign=middle;whiteSpace=wrap;rounded=0;" parent="1" vertex="1">
          <mxGeometry x="157.5" y="684.5" width="80" height="40" as="geometry" />
        </mxCell>
        <mxCell id="OYPGstpTxhAQt0Nlltqd-14" value="" style="endArrow=none;html=1;rounded=0;" parent="1" source="OYPGstpTxhAQt0Nlltqd-15" edge="1">
          <mxGeometry width="50" height="50" relative="1" as="geometry">
            <mxPoint x="267.5" y="632.0899999999999" as="sourcePoint" />
            <mxPoint x="340.5" y="704.5" as="targetPoint" />
          </mxGeometry>
        </mxCell>
        <mxCell id="OYPGstpTxhAQt0Nlltqd-15" value="" style="ellipse;whiteSpace=wrap;html=1;fillColor=#FFFFFF;direction=south;gradientColor=none;" parent="1" vertex="1">
          <mxGeometry x="243.75" y="641.5" width="20" height="20" as="geometry" />
        </mxCell>
        <mxCell id="OYPGstpTxhAQt0Nlltqd-16" value="&lt;span style=&quot;font-size: 18px;&quot;&gt;RespRil&lt;/span&gt;" style="text;html=1;strokeColor=none;fillColor=none;align=center;verticalAlign=middle;whiteSpace=wrap;rounded=0;" parent="1" vertex="1">
          <mxGeometry x="157.5" y="631.5" width="90" height="40" as="geometry" />
        </mxCell>
        <mxCell id="OYPGstpTxhAQt0Nlltqd-17" value="" style="endArrow=none;html=1;rounded=0;" parent="1" edge="1">
          <mxGeometry width="50" height="50" relative="1" as="geometry">
            <mxPoint x="257.5" y="824.5" as="sourcePoint" />
            <mxPoint x="337.5" y="784.5" as="targetPoint" />
          </mxGeometry>
        </mxCell>
        <mxCell id="OYPGstpTxhAQt0Nlltqd-18" value="" style="ellipse;whiteSpace=wrap;html=1;fillColor=#FFFFFF;direction=south;gradientColor=none;" parent="1" vertex="1">
          <mxGeometry x="237.5" y="814.5" width="20" height="20" as="geometry" />
        </mxCell>
        <mxCell id="OYPGstpTxhAQt0Nlltqd-19" value="&lt;span style=&quot;font-size: 18px;&quot;&gt;RespIns&lt;/span&gt;" style="text;html=1;strokeColor=none;fillColor=none;align=center;verticalAlign=middle;whiteSpace=wrap;rounded=0;" parent="1" vertex="1">
          <mxGeometry x="147.5" y="804.5" width="90" height="40" as="geometry" />
        </mxCell>
        <mxCell id="OYPGstpTxhAQt0Nlltqd-26" value="" style="endArrow=none;html=1;rounded=0;exitX=0.5;exitY=1;exitDx=0;exitDy=0;entryX=1.001;entryY=0.883;entryDx=0;entryDy=0;entryPerimeter=0;" parent="1" target="1GqtW3D0vnaD6hVMnLZm-21" edge="1">
          <mxGeometry width="50" height="50" relative="1" as="geometry">
            <mxPoint x="1361.9999999999995" y="1000" as="sourcePoint" />
            <mxPoint x="1290" y="1000" as="targetPoint" />
          </mxGeometry>
        </mxCell>
        <mxCell id="OYPGstpTxhAQt0Nlltqd-28" value="&lt;span style=&quot;font-size: 18px;&quot;&gt;IDReplica&lt;/span&gt;" style="text;html=1;strokeColor=none;fillColor=none;align=center;verticalAlign=middle;whiteSpace=wrap;rounded=0;" parent="1" vertex="1">
          <mxGeometry x="1388.5" y="984.5" width="60" height="30" as="geometry" />
        </mxCell>
        <mxCell id="OYPGstpTxhAQt0Nlltqd-29" value="" style="endArrow=none;html=1;rounded=0;entryX=0.188;entryY=0.006;entryDx=0;entryDy=0;entryPerimeter=0;" parent="1" source="OYPGstpTxhAQt0Nlltqd-31" target="1GqtW3D0vnaD6hVMnLZm-21" edge="1">
          <mxGeometry width="50" height="50" relative="1" as="geometry">
            <mxPoint x="1135.66" y="863" as="sourcePoint" />
            <mxPoint x="1135.66" y="903" as="targetPoint" />
          </mxGeometry>
        </mxCell>
        <mxCell id="OYPGstpTxhAQt0Nlltqd-30" value="&lt;span style=&quot;font-size: 18px;&quot;&gt;Gruppo&lt;/span&gt;" style="text;html=1;strokeColor=none;fillColor=none;align=center;verticalAlign=middle;whiteSpace=wrap;rounded=0;" parent="1" vertex="1">
          <mxGeometry x="1057" y="850.5" width="50" height="30" as="geometry" />
        </mxCell>
        <mxCell id="OYPGstpTxhAQt0Nlltqd-31" value="" style="ellipse;whiteSpace=wrap;html=1;fillColor=#FFFFFF;direction=south;gradientColor=none;" parent="1" vertex="1">
          <mxGeometry x="1114" y="873" width="20" height="20" as="geometry" />
        </mxCell>
        <mxCell id="OYPGstpTxhAQt0Nlltqd-36" value="" style="endArrow=none;html=1;rounded=0;" parent="1" source="OYPGstpTxhAQt0Nlltqd-37" target="1GqtW3D0vnaD6hVMnLZm-21" edge="1">
          <mxGeometry width="50" height="50" relative="1" as="geometry">
            <mxPoint x="1271" y="860" as="sourcePoint" />
            <mxPoint x="1260.2" y="905.3599999999999" as="targetPoint" />
          </mxGeometry>
        </mxCell>
        <mxCell id="OYPGstpTxhAQt0Nlltqd-37" value="" style="ellipse;whiteSpace=wrap;html=1;fillColor=#FFFFFF;direction=south;gradientColor=none;" parent="1" vertex="1">
          <mxGeometry x="1239" y="869.5" width="20" height="20" as="geometry" />
        </mxCell>
        <mxCell id="OYPGstpTxhAQt0Nlltqd-38" value="&lt;span style=&quot;font-size: 18px;&quot;&gt;DataDimora&lt;/span&gt;" style="text;html=1;strokeColor=none;fillColor=none;align=center;verticalAlign=middle;whiteSpace=wrap;rounded=0;" parent="1" vertex="1">
          <mxGeometry x="1282" y="850.5" width="40" height="30" as="geometry" />
        </mxCell>
        <mxCell id="OYPGstpTxhAQt0Nlltqd-73" value="&lt;span style=&quot;font-size: 18px;&quot;&gt;Nome&lt;/span&gt;" style="text;html=1;strokeColor=none;fillColor=none;align=center;verticalAlign=middle;whiteSpace=wrap;rounded=0;" parent="1" vertex="1">
          <mxGeometry x="1590" y="933.5" width="60" height="40" as="geometry" />
        </mxCell>
        <mxCell id="OYPGstpTxhAQt0Nlltqd-77" value="" style="endArrow=none;html=1;rounded=0;entryX=0.5;entryY=1;entryDx=0;entryDy=0;" parent="1" source="OYPGstpTxhAQt0Nlltqd-78" edge="1">
          <mxGeometry width="50" height="50" relative="1" as="geometry">
            <mxPoint x="1732.5" y="934.5" as="sourcePoint" />
            <mxPoint x="1712.5" y="874.5" as="targetPoint" />
          </mxGeometry>
        </mxCell>
        <mxCell id="OYPGstpTxhAQt0Nlltqd-78" value="" style="ellipse;whiteSpace=wrap;html=1;fillColor=#FFFFFF;direction=south;gradientColor=none;" parent="1" vertex="1">
          <mxGeometry x="1680" y="943.5" width="20" height="20" as="geometry" />
        </mxCell>
        <mxCell id="OYPGstpTxhAQt0Nlltqd-81" value="&lt;span style=&quot;font-size: 18px;&quot;&gt;Tipo&lt;/span&gt;" style="text;html=1;strokeColor=none;fillColor=none;align=center;verticalAlign=middle;whiteSpace=wrap;rounded=0;" parent="1" vertex="1">
          <mxGeometry x="1655" y="958.5" width="45" height="40" as="geometry" />
        </mxCell>
        <mxCell id="OYPGstpTxhAQt0Nlltqd-82" value="" style="endArrow=none;html=1;rounded=0;entryX=0.5;entryY=1;entryDx=0;entryDy=0;" parent="1" source="OYPGstpTxhAQt0Nlltqd-87" edge="1">
          <mxGeometry width="50" height="50" relative="1" as="geometry">
            <mxPoint x="1759.17" y="944.5" as="sourcePoint" />
            <mxPoint x="1759.17" y="874.5" as="targetPoint" />
          </mxGeometry>
        </mxCell>
        <mxCell id="OYPGstpTxhAQt0Nlltqd-84" value="&lt;span style=&quot;font-size: 18px;&quot;&gt;Gps&lt;/span&gt;" style="text;html=1;strokeColor=none;fillColor=none;align=center;verticalAlign=middle;whiteSpace=wrap;rounded=0;" parent="1" vertex="1">
          <mxGeometry x="1720" y="967.5" width="40" height="34" as="geometry" />
        </mxCell>
        <mxCell id="OYPGstpTxhAQt0Nlltqd-85" value="" style="endArrow=none;html=1;rounded=0;exitX=0;exitY=0.5;exitDx=0;exitDy=0;" parent="1" source="OYPGstpTxhAQt0Nlltqd-86" edge="1">
          <mxGeometry width="50" height="50" relative="1" as="geometry">
            <mxPoint x="1810" y="944.5" as="sourcePoint" />
            <mxPoint x="1800" y="874.5" as="targetPoint" />
          </mxGeometry>
        </mxCell>
        <mxCell id="OYPGstpTxhAQt0Nlltqd-87" value="" style="ellipse;whiteSpace=wrap;html=1;fillColor=#FFFFFF;direction=south;gradientColor=none;" parent="1" vertex="1">
          <mxGeometry x="1728" y="949.5" width="20" height="20" as="geometry" />
        </mxCell>
        <mxCell id="OYPGstpTxhAQt0Nlltqd-88" value="&lt;span style=&quot;font-size: 18px;&quot;&gt;Superf&lt;/span&gt;" style="text;html=1;strokeColor=none;fillColor=none;align=center;verticalAlign=middle;whiteSpace=wrap;rounded=0;" parent="1" vertex="1">
          <mxGeometry x="1790" y="964.5" width="40" height="40" as="geometry" />
        </mxCell>
        <mxCell id="OYPGstpTxhAQt0Nlltqd-89" value="" style="endArrow=none;html=1;rounded=0;exitX=0;exitY=1;exitDx=0;exitDy=0;entryX=1;entryY=1;entryDx=0;entryDy=0;" parent="1" source="OYPGstpTxhAQt0Nlltqd-90" target="1GqtW3D0vnaD6hVMnLZm-12" edge="1">
          <mxGeometry width="50" height="50" relative="1" as="geometry">
            <mxPoint x="1960" y="948" as="sourcePoint" />
            <mxPoint x="1880" y="878" as="targetPoint" />
          </mxGeometry>
        </mxCell>
        <mxCell id="OYPGstpTxhAQt0Nlltqd-90" value="" style="ellipse;whiteSpace=wrap;html=1;fillColor=#FFFFFF;direction=south;gradientColor=none;" parent="1" vertex="1">
          <mxGeometry x="1860" y="913.5" width="20" height="20" as="geometry" />
        </mxCell>
        <mxCell id="OYPGstpTxhAQt0Nlltqd-91" value="&lt;span style=&quot;font-size: 18px;&quot;&gt;ContestoAmb&lt;/span&gt;" style="text;html=1;strokeColor=none;fillColor=none;align=center;verticalAlign=middle;whiteSpace=wrap;rounded=0;" parent="1" vertex="1">
          <mxGeometry x="1910" y="920.5" width="50" height="40" as="geometry" />
        </mxCell>
        <mxCell id="OYPGstpTxhAQt0Nlltqd-96" value="" style="endArrow=none;html=1;rounded=0;exitX=1;exitY=1;exitDx=0;exitDy=0;" parent="1" edge="1">
          <mxGeometry width="50" height="50" relative="1" as="geometry">
            <mxPoint x="1800" y="329.49" as="sourcePoint" />
            <mxPoint x="1880" y="329.49" as="targetPoint" />
            <Array as="points">
              <mxPoint x="1840" y="329.49" />
            </Array>
          </mxGeometry>
        </mxCell>
        <mxCell id="OYPGstpTxhAQt0Nlltqd-95" value="" style="ellipse;whiteSpace=wrap;html=1;fillColor=#FFFFFF;direction=south;gradientColor=none;" parent="1" vertex="1">
          <mxGeometry x="1880" y="320" width="20" height="20" as="geometry" />
        </mxCell>
        <mxCell id="OYPGstpTxhAQt0Nlltqd-97" value="&lt;span style=&quot;font-size: 18px;&quot;&gt;Collabora&lt;/span&gt;" style="text;html=1;strokeColor=none;fillColor=none;align=center;verticalAlign=middle;whiteSpace=wrap;rounded=0;" parent="1" vertex="1">
          <mxGeometry x="1900" y="310" width="80" height="40" as="geometry" />
        </mxCell>
        <mxCell id="OYPGstpTxhAQt0Nlltqd-101" value="" style="endArrow=none;html=1;rounded=0;entryX=0.995;entryY=0.66;entryDx=0;entryDy=0;entryPerimeter=0;" parent="1" source="OYPGstpTxhAQt0Nlltqd-102" target="PH95ImstwBu5i2bBudpi-6" edge="1">
          <mxGeometry width="50" height="50" relative="1" as="geometry">
            <mxPoint x="503.75" y="1179" as="sourcePoint" />
            <mxPoint x="490.01545281481253" y="1115.2676658190144" as="targetPoint" />
          </mxGeometry>
        </mxCell>
        <mxCell id="OYPGstpTxhAQt0Nlltqd-102" value="" style="ellipse;whiteSpace=wrap;html=1;fillColor=#FFFFFF;direction=south;gradientColor=none;" parent="1" vertex="1">
          <mxGeometry x="552.5" y="1114" width="20" height="20" as="geometry" />
        </mxCell>
        <mxCell id="OYPGstpTxhAQt0Nlltqd-103" value="&lt;span style=&quot;font-size: 18px;&quot;&gt;Ph&lt;/span&gt;" style="text;html=1;strokeColor=none;fillColor=none;align=center;verticalAlign=middle;whiteSpace=wrap;rounded=0;" parent="1" vertex="1">
          <mxGeometry x="571" y="1116.5" width="45" height="25" as="geometry" />
        </mxCell>
        <mxCell id="OYPGstpTxhAQt0Nlltqd-104" value="" style="endArrow=none;html=1;rounded=0;entryX=0.988;entryY=0.575;entryDx=0;entryDy=0;entryPerimeter=0;" parent="1" source="OYPGstpTxhAQt0Nlltqd-105" target="PH95ImstwBu5i2bBudpi-6" edge="1">
          <mxGeometry width="50" height="50" relative="1" as="geometry">
            <mxPoint x="518.33" y="1164" as="sourcePoint" />
            <mxPoint x="504.125" y="1108.94" as="targetPoint" />
          </mxGeometry>
        </mxCell>
        <mxCell id="OYPGstpTxhAQt0Nlltqd-105" value="" style="ellipse;whiteSpace=wrap;html=1;fillColor=#FFFFFF;direction=south;gradientColor=none;" parent="1" vertex="1">
          <mxGeometry x="551" y="1077" width="20" height="20" as="geometry" />
        </mxCell>
        <mxCell id="OYPGstpTxhAQt0Nlltqd-106" value="&lt;span style=&quot;font-size: 18px;&quot;&gt;Umidità&lt;/span&gt;" style="text;html=1;strokeColor=none;fillColor=none;align=center;verticalAlign=middle;whiteSpace=wrap;rounded=0;" parent="1" vertex="1">
          <mxGeometry x="578.75" y="1067" width="55" height="40" as="geometry" />
        </mxCell>
        <mxCell id="OYPGstpTxhAQt0Nlltqd-107" value="" style="endArrow=none;html=1;rounded=0;entryX=1;entryY=0.25;entryDx=0;entryDy=0;" parent="1" source="OYPGstpTxhAQt0Nlltqd-108" target="PH95ImstwBu5i2bBudpi-6" edge="1">
          <mxGeometry width="50" height="50" relative="1" as="geometry">
            <mxPoint x="580.42" y="1104" as="sourcePoint" />
            <mxPoint x="506.5" y="1081" as="targetPoint" />
          </mxGeometry>
        </mxCell>
        <mxCell id="OYPGstpTxhAQt0Nlltqd-108" value="" style="ellipse;whiteSpace=wrap;html=1;fillColor=#FFFFFF;direction=south;gradientColor=none;" parent="1" vertex="1">
          <mxGeometry x="532.5" y="1036" width="20" height="20" as="geometry" />
        </mxCell>
        <mxCell id="OYPGstpTxhAQt0Nlltqd-109" value="&lt;span style=&quot;font-size: 18px;&quot;&gt;Temperatura&lt;/span&gt;" style="text;html=1;strokeColor=none;fillColor=none;align=center;verticalAlign=middle;whiteSpace=wrap;rounded=0;" parent="1" vertex="1">
          <mxGeometry x="478" y="1003.5" width="100" height="40" as="geometry" />
        </mxCell>
        <mxCell id="OYPGstpTxhAQt0Nlltqd-86" value="" style="ellipse;whiteSpace=wrap;html=1;fillColor=#FFFFFF;direction=south;gradientColor=none;" parent="1" vertex="1">
          <mxGeometry x="1790" y="944.5" width="20" height="20" as="geometry" />
        </mxCell>
        <mxCell id="-W9HBCJ5S_jVVeni4LiE-15" value="" style="ellipse;whiteSpace=wrap;html=1;fillColor=#FFFFFF;direction=south;gradientColor=none;" parent="1" vertex="1">
          <mxGeometry x="1870" y="833.5" width="20" height="20" as="geometry" />
        </mxCell>
        <mxCell id="-W9HBCJ5S_jVVeni4LiE-16" value="&lt;span style=&quot;font-size: 18px;&quot;&gt;NumSensori&lt;/span&gt;" style="text;html=1;strokeColor=none;fillColor=none;align=center;verticalAlign=middle;whiteSpace=wrap;rounded=0;" parent="1" vertex="1">
          <mxGeometry x="1890" y="827" width="116" height="30" as="geometry" />
        </mxCell>
        <mxCell id="-W9HBCJ5S_jVVeni4LiE-17" value="" style="endArrow=none;html=1;rounded=0;exitX=1;exitY=1;exitDx=0;exitDy=0;" parent="1" edge="1">
          <mxGeometry width="50" height="50" relative="1" as="geometry">
            <mxPoint x="1820" y="843.5" as="sourcePoint" />
            <mxPoint x="1870" y="843.5" as="targetPoint" />
          </mxGeometry>
        </mxCell>
        <mxCell id="-W9HBCJ5S_jVVeni4LiE-18" value="" style="endArrow=none;html=1;rounded=0;exitX=1;exitY=0.5;exitDx=0;exitDy=0;" parent="1" target="-W9HBCJ5S_jVVeni4LiE-12" edge="1">
          <mxGeometry width="50" height="50" relative="1" as="geometry">
            <mxPoint x="1670" y="874.5" as="sourcePoint" />
            <mxPoint x="1670.83" y="944.5" as="targetPoint" />
          </mxGeometry>
        </mxCell>
        <mxCell id="-W9HBCJ5S_jVVeni4LiE-12" value="" style="ellipse;whiteSpace=wrap;html=1;fillColor=#000000;direction=south;gradientColor=none;" parent="1" vertex="1">
          <mxGeometry x="1630" y="919.5" width="20" height="20" as="geometry" />
        </mxCell>
        <mxCell id="xbkp54h4-bro_WAhH61t-3" value="" style="endArrow=none;html=1;rounded=0;exitX=1;exitY=1;exitDx=0;exitDy=0;" parent="1" target="xbkp54h4-bro_WAhH61t-4" edge="1">
          <mxGeometry width="50" height="50" relative="1" as="geometry">
            <mxPoint x="1800" y="289.49" as="sourcePoint" />
            <mxPoint x="1880" y="289.49" as="targetPoint" />
            <Array as="points" />
          </mxGeometry>
        </mxCell>
        <mxCell id="xbkp54h4-bro_WAhH61t-4" value="" style="ellipse;whiteSpace=wrap;html=1;fillColor=#FFFFFF;direction=south;gradientColor=none;" parent="1" vertex="1">
          <mxGeometry x="1860" y="260" width="20" height="20" as="geometry" />
        </mxCell>
        <mxCell id="xbkp54h4-bro_WAhH61t-5" value="&lt;span style=&quot;font-size: 18px;&quot;&gt;TipoFin&lt;/span&gt;" style="text;html=1;strokeColor=none;fillColor=none;align=center;verticalAlign=middle;whiteSpace=wrap;rounded=0;" parent="1" vertex="1">
          <mxGeometry x="1870" y="245" width="80" height="40" as="geometry" />
        </mxCell>
        <mxCell id="xbkp54h4-bro_WAhH61t-9" value="" style="endArrow=none;html=1;rounded=0;entryX=0.003;entryY=0.381;entryDx=0;entryDy=0;entryPerimeter=0;" parent="1" source="xbkp54h4-bro_WAhH61t-10" target="PH95ImstwBu5i2bBudpi-6" edge="1">
          <mxGeometry width="50" height="50" relative="1" as="geometry">
            <mxPoint x="334.25" y="1156" as="sourcePoint" />
            <mxPoint x="326.48" y="1101.32" as="targetPoint" />
          </mxGeometry>
        </mxCell>
        <mxCell id="xbkp54h4-bro_WAhH61t-10" value="" style="ellipse;whiteSpace=wrap;html=1;fillColor=#FFFFFF;direction=south;gradientColor=none;" parent="1" vertex="1">
          <mxGeometry x="261.25" y="1066" width="20" height="20" as="geometry" />
        </mxCell>
        <mxCell id="xbkp54h4-bro_WAhH61t-33" value="" style="endArrow=none;html=1;rounded=0;entryX=0;entryY=0.125;entryDx=0;entryDy=0;entryPerimeter=0;" parent="1" source="xbkp54h4-bro_WAhH61t-34" target="PH95ImstwBu5i2bBudpi-6" edge="1">
          <mxGeometry width="50" height="50" relative="1" as="geometry">
            <mxPoint x="294.25" y="1113" as="sourcePoint" />
            <mxPoint x="333.69499999999994" y="1080.68" as="targetPoint" />
          </mxGeometry>
        </mxCell>
        <mxCell id="xbkp54h4-bro_WAhH61t-34" value="" style="ellipse;whiteSpace=wrap;html=1;fillColor=#FFFFFF;direction=south;gradientColor=none;" parent="1" vertex="1">
          <mxGeometry x="281.25" y="1024" width="20" height="20" as="geometry" />
        </mxCell>
        <mxCell id="xbkp54h4-bro_WAhH61t-35" value="&lt;span style=&quot;font-size: 18px;&quot;&gt;LargChioma&lt;/span&gt;" style="text;html=1;strokeColor=none;fillColor=none;align=center;verticalAlign=middle;whiteSpace=wrap;rounded=0;" parent="1" vertex="1">
          <mxGeometry x="231.25" y="999" width="45" height="25" as="geometry" />
        </mxCell>
        <mxCell id="xbkp54h4-bro_WAhH61t-36" value="&lt;span style=&quot;font-size: 18px;&quot;&gt;LungChioma&lt;/span&gt;" style="text;html=1;strokeColor=none;fillColor=none;align=center;verticalAlign=middle;whiteSpace=wrap;rounded=0;" parent="1" vertex="1">
          <mxGeometry x="187.5" y="1052" width="45" height="25" as="geometry" />
        </mxCell>
        <mxCell id="xbkp54h4-bro_WAhH61t-38" value="" style="endArrow=none;html=1;rounded=0;entryX=0;entryY=0.5;entryDx=0;entryDy=0;" parent="1" source="xbkp54h4-bro_WAhH61t-39" target="PH95ImstwBu5i2bBudpi-6" edge="1">
          <mxGeometry width="50" height="50" relative="1" as="geometry">
            <mxPoint x="354.25" y="1185.48" as="sourcePoint" />
            <mxPoint x="343.44499999999994" y="1112.36" as="targetPoint" />
          </mxGeometry>
        </mxCell>
        <mxCell id="xbkp54h4-bro_WAhH61t-39" value="" style="ellipse;whiteSpace=wrap;html=1;fillColor=#FFFFFF;direction=south;gradientColor=none;" parent="1" vertex="1">
          <mxGeometry x="266.25" y="1104" width="20" height="20" as="geometry" />
        </mxCell>
        <mxCell id="xbkp54h4-bro_WAhH61t-40" value="" style="endArrow=none;html=1;rounded=0;entryX=-0.005;entryY=0.628;entryDx=0;entryDy=0;entryPerimeter=0;" parent="1" source="xbkp54h4-bro_WAhH61t-41" target="PH95ImstwBu5i2bBudpi-6" edge="1">
          <mxGeometry width="50" height="50" relative="1" as="geometry">
            <mxPoint x="379.25" y="1193.32" as="sourcePoint" />
            <mxPoint x="360.4100000000001" y="1116.92" as="targetPoint" />
          </mxGeometry>
        </mxCell>
        <mxCell id="xbkp54h4-bro_WAhH61t-41" value="" style="ellipse;whiteSpace=wrap;html=1;fillColor=#FFFFFF;direction=south;gradientColor=none;" parent="1" vertex="1">
          <mxGeometry x="275" y="1144" width="20" height="20" as="geometry" />
        </mxCell>
        <mxCell id="xbkp54h4-bro_WAhH61t-42" value="" style="endArrow=none;html=1;rounded=0;entryX=0.003;entryY=0.863;entryDx=0;entryDy=0;entryPerimeter=0;" parent="1" source="xbkp54h4-bro_WAhH61t-43" target="PH95ImstwBu5i2bBudpi-6" edge="1">
          <mxGeometry width="50" height="50" relative="1" as="geometry">
            <mxPoint x="409.25" y="1203" as="sourcePoint" />
            <mxPoint x="378.3499999999999" y="1121.66" as="targetPoint" />
          </mxGeometry>
        </mxCell>
        <mxCell id="xbkp54h4-bro_WAhH61t-43" value="" style="ellipse;whiteSpace=wrap;html=1;fillColor=#FFFFFF;direction=south;gradientColor=none;" parent="1" vertex="1">
          <mxGeometry x="276.25" y="1176" width="20" height="20" as="geometry" />
        </mxCell>
        <mxCell id="xbkp54h4-bro_WAhH61t-44" value="&lt;span style=&quot;font-size: 18px;&quot;&gt;PesoFrescChioma&lt;/span&gt;" style="text;html=1;strokeColor=none;fillColor=none;align=center;verticalAlign=middle;whiteSpace=wrap;rounded=0;" parent="1" vertex="1">
          <mxGeometry x="166.25" y="1099" width="45" height="25" as="geometry" />
        </mxCell>
        <mxCell id="xbkp54h4-bro_WAhH61t-45" value="&lt;span style=&quot;font-size: 18px;&quot;&gt;PesoSecChioma&lt;/span&gt;" style="text;html=1;strokeColor=none;fillColor=none;align=center;verticalAlign=middle;whiteSpace=wrap;rounded=0;" parent="1" vertex="1">
          <mxGeometry x="177.5" y="1141.5" width="45" height="25" as="geometry" />
        </mxCell>
        <mxCell id="xbkp54h4-bro_WAhH61t-47" value="" style="endArrow=none;html=1;rounded=0;entryX=0.168;entryY=1.003;entryDx=0;entryDy=0;entryPerimeter=0;" parent="1" source="xbkp54h4-bro_WAhH61t-48" target="PH95ImstwBu5i2bBudpi-6" edge="1">
          <mxGeometry width="50" height="50" relative="1" as="geometry">
            <mxPoint x="434.25" y="1204" as="sourcePoint" />
            <mxPoint x="397.06999999999994" y="1124.06" as="targetPoint" />
          </mxGeometry>
        </mxCell>
        <mxCell id="xbkp54h4-bro_WAhH61t-48" value="" style="ellipse;whiteSpace=wrap;html=1;fillColor=#FFFFFF;direction=south;gradientColor=none;" parent="1" vertex="1">
          <mxGeometry x="310" y="1206.5" width="20" height="20" as="geometry" />
        </mxCell>
        <mxCell id="xbkp54h4-bro_WAhH61t-51" value="" style="endArrow=none;html=1;rounded=0;entryX=0.353;entryY=1.003;entryDx=0;entryDy=0;entryPerimeter=0;" parent="1" source="xbkp54h4-bro_WAhH61t-52" target="PH95ImstwBu5i2bBudpi-6" edge="1">
          <mxGeometry width="50" height="50" relative="1" as="geometry">
            <mxPoint x="464.25" y="1204" as="sourcePoint" />
            <mxPoint x="412.4749999999999" y="1124.84" as="targetPoint" />
          </mxGeometry>
        </mxCell>
        <mxCell id="xbkp54h4-bro_WAhH61t-52" value="" style="ellipse;whiteSpace=wrap;html=1;fillColor=#FFFFFF;direction=south;gradientColor=none;" parent="1" vertex="1">
          <mxGeometry x="355" y="1231.5" width="20" height="20" as="geometry" />
        </mxCell>
        <mxCell id="xbkp54h4-bro_WAhH61t-53" value="" style="endArrow=none;html=1;rounded=0;" parent="1" source="PH95ImstwBu5i2bBudpi-6" edge="1">
          <mxGeometry width="50" height="50" relative="1" as="geometry">
            <mxPoint x="504.25" y="1220.5" as="sourcePoint" />
            <mxPoint x="426.25" y="1124" as="targetPoint" />
          </mxGeometry>
        </mxCell>
        <mxCell id="xbkp54h4-bro_WAhH61t-54" value="" style="ellipse;whiteSpace=wrap;html=1;fillColor=#FFFFFF;direction=south;gradientColor=none;" parent="1" vertex="1">
          <mxGeometry x="422.5" y="1250" width="20" height="20" as="geometry" />
        </mxCell>
        <mxCell id="xbkp54h4-bro_WAhH61t-55" value="" style="endArrow=none;html=1;rounded=0;entryX=0.627;entryY=1.014;entryDx=0;entryDy=0;entryPerimeter=0;" parent="1" source="PH95ImstwBu5i2bBudpi-6" edge="1">
          <mxGeometry width="50" height="50" relative="1" as="geometry">
            <mxPoint x="533.25" y="1213" as="sourcePoint" />
            <mxPoint x="446.0150000000001" y="1124.84" as="targetPoint" />
          </mxGeometry>
        </mxCell>
        <mxCell id="xbkp54h4-bro_WAhH61t-56" value="" style="ellipse;whiteSpace=wrap;html=1;fillColor=#FFFFFF;direction=south;gradientColor=none;" parent="1" vertex="1">
          <mxGeometry x="478" y="1237" width="20" height="20" as="geometry" />
        </mxCell>
        <mxCell id="xbkp54h4-bro_WAhH61t-57" value="" style="endArrow=none;html=1;rounded=0;entryX=0.833;entryY=1.005;entryDx=0;entryDy=0;entryPerimeter=0;" parent="1" source="xbkp54h4-bro_WAhH61t-58" target="PH95ImstwBu5i2bBudpi-6" edge="1">
          <mxGeometry width="50" height="50" relative="1" as="geometry">
            <mxPoint x="570.75" y="1188" as="sourcePoint" />
            <mxPoint x="459.47" y="1123.04" as="targetPoint" />
          </mxGeometry>
        </mxCell>
        <mxCell id="xbkp54h4-bro_WAhH61t-58" value="" style="ellipse;whiteSpace=wrap;html=1;fillColor=#FFFFFF;direction=south;gradientColor=none;" parent="1" vertex="1">
          <mxGeometry x="521.25" y="1214" width="20" height="20" as="geometry" />
        </mxCell>
        <mxCell id="xbkp54h4-bro_WAhH61t-59" value="" style="endArrow=none;html=1;rounded=0;entryX=0.98;entryY=1.01;entryDx=0;entryDy=0;entryPerimeter=0;" parent="1" source="xbkp54h4-bro_WAhH61t-60" target="PH95ImstwBu5i2bBudpi-6" edge="1">
          <mxGeometry width="50" height="50" relative="1" as="geometry">
            <mxPoint x="623.75" y="1134" as="sourcePoint" />
            <mxPoint x="474.095" y="1122.5" as="targetPoint" />
          </mxGeometry>
        </mxCell>
        <mxCell id="xbkp54h4-bro_WAhH61t-60" value="" style="ellipse;whiteSpace=wrap;html=1;fillColor=#FFFFFF;direction=south;gradientColor=none;" parent="1" vertex="1">
          <mxGeometry x="538.5" y="1181.5" width="20" height="20" as="geometry" />
        </mxCell>
        <mxCell id="xbkp54h4-bro_WAhH61t-62" value="" style="endArrow=none;html=1;rounded=0;entryX=0.99;entryY=0.8;entryDx=0;entryDy=0;entryPerimeter=0;" parent="1" source="xbkp54h4-bro_WAhH61t-63" target="PH95ImstwBu5i2bBudpi-6" edge="1">
          <mxGeometry width="50" height="50" relative="1" as="geometry">
            <mxPoint x="626.75" y="1143" as="sourcePoint" />
            <mxPoint x="483.06500000000005" y="1117.16" as="targetPoint" />
          </mxGeometry>
        </mxCell>
        <mxCell id="xbkp54h4-bro_WAhH61t-63" value="" style="ellipse;whiteSpace=wrap;html=1;fillColor=#FFFFFF;direction=south;gradientColor=none;" parent="1" vertex="1">
          <mxGeometry x="552.5" y="1149" width="20" height="20" as="geometry" />
        </mxCell>
        <mxCell id="xbkp54h4-bro_WAhH61t-64" value="&lt;span style=&quot;font-size: 18px;&quot;&gt;AltPianta&lt;/span&gt;" style="text;html=1;strokeColor=none;fillColor=none;align=center;verticalAlign=middle;whiteSpace=wrap;rounded=0;" parent="1" vertex="1">
          <mxGeometry x="205" y="1184" width="45" height="25" as="geometry" />
        </mxCell>
        <mxCell id="xbkp54h4-bro_WAhH61t-65" value="&lt;span style=&quot;font-size: 18px;&quot;&gt;LungRadici&lt;/span&gt;" style="text;html=1;strokeColor=none;fillColor=none;align=center;verticalAlign=middle;whiteSpace=wrap;rounded=0;" parent="1" vertex="1">
          <mxGeometry x="246.25" y="1220" width="45" height="25" as="geometry" />
        </mxCell>
        <mxCell id="xbkp54h4-bro_WAhH61t-66" value="&lt;span style=&quot;font-size: 18px;&quot;&gt;PesoFrescRaidici&lt;/span&gt;" style="text;html=1;strokeColor=none;fillColor=none;align=center;verticalAlign=middle;whiteSpace=wrap;rounded=0;" parent="1" vertex="1">
          <mxGeometry x="285" y="1250" width="45" height="25" as="geometry" />
        </mxCell>
        <mxCell id="xbkp54h4-bro_WAhH61t-67" value="&lt;span style=&quot;font-family: Helvetica; font-size: 18px; font-style: normal; font-variant-ligatures: normal; font-variant-caps: normal; font-weight: 400; letter-spacing: normal; orphans: 2; text-align: center; text-indent: 0px; text-transform: none; widows: 2; word-spacing: 0px; -webkit-text-stroke-width: 0px; text-decoration-thickness: initial; text-decoration-style: initial; text-decoration-color: initial; float: none; display: inline !important;&quot;&gt;PesoSecRaidici&lt;/span&gt;" style="text;whiteSpace=wrap;html=1;" parent="1" vertex="1">
          <mxGeometry x="335" y="1270" width="132.5" height="30" as="geometry" />
        </mxCell>
        <mxCell id="xbkp54h4-bro_WAhH61t-68" value="&lt;span style=&quot;font-family: Helvetica; font-size: 18px; font-style: normal; font-variant-ligatures: normal; font-variant-caps: normal; font-weight: 400; letter-spacing: normal; orphans: 2; text-align: center; text-indent: 0px; text-transform: none; widows: 2; word-spacing: 0px; -webkit-text-stroke-width: 0px; text-decoration-thickness: initial; text-decoration-style: initial; text-decoration-color: initial; float: none; display: inline !important;&quot;&gt;NumFiori&lt;/span&gt;" style="text;whiteSpace=wrap;html=1;" parent="1" vertex="1">
          <mxGeometry x="482.5" y="1257" width="85" height="30" as="geometry" />
        </mxCell>
        <mxCell id="xbkp54h4-bro_WAhH61t-70" value="&lt;span style=&quot;font-family: Helvetica; font-size: 18px; font-style: normal; font-variant-ligatures: normal; font-variant-caps: normal; font-weight: 400; letter-spacing: normal; orphans: 2; text-align: center; text-indent: 0px; text-transform: none; widows: 2; word-spacing: 0px; -webkit-text-stroke-width: 0px; text-decoration-thickness: initial; text-decoration-style: initial; text-decoration-color: initial; float: none; display: inline !important;&quot;&gt;NumFrutti&lt;/span&gt;" style="text;whiteSpace=wrap;html=1;" parent="1" vertex="1">
          <mxGeometry x="546.5" y="1220" width="90" height="30" as="geometry" />
        </mxCell>
        <mxCell id="xbkp54h4-bro_WAhH61t-72" value="&lt;div style=&quot;text-align: center;&quot;&gt;&lt;span style=&quot;background-color: initial; font-size: 18px;&quot;&gt;&amp;nbsp;NumFoglieDann&lt;/span&gt;&lt;/div&gt;" style="text;whiteSpace=wrap;html=1;" parent="1" vertex="1">
          <mxGeometry x="562.5" y="1176.5" width="135" height="30" as="geometry" />
        </mxCell>
        <mxCell id="xbkp54h4-bro_WAhH61t-73" value="&lt;span style=&quot;font-family: Helvetica; font-size: 18px; font-style: normal; font-variant-ligatures: normal; font-variant-caps: normal; font-weight: 400; letter-spacing: normal; orphans: 2; text-align: center; text-indent: 0px; text-transform: none; widows: 2; word-spacing: 0px; -webkit-text-stroke-width: 0px; text-decoration-thickness: initial; text-decoration-style: initial; text-decoration-color: initial; float: none; display: inline !important;&quot;&gt;SupDann&lt;/span&gt;" style="text;whiteSpace=wrap;html=1;" parent="1" vertex="1">
          <mxGeometry x="578" y="1144" width="90" height="30" as="geometry" />
        </mxCell>
        <mxCell id="mI0G9RqRu6ml6arS59rm-1" value="" style="endArrow=none;html=1;rounded=0;entryX=0;entryY=0;entryDx=0;entryDy=0;" parent="1" edge="1">
          <mxGeometry width="50" height="50" relative="1" as="geometry">
            <mxPoint x="834.31" y="891" as="sourcePoint" />
            <mxPoint x="834.31" y="931" as="targetPoint" />
          </mxGeometry>
        </mxCell>
        <mxCell id="mI0G9RqRu6ml6arS59rm-3" value="" style="endArrow=none;html=1;rounded=0;entryX=0;entryY=0;entryDx=0;entryDy=0;exitX=1;exitY=0.5;exitDx=0;exitDy=0;" parent="1" source="mI0G9RqRu6ml6arS59rm-5" edge="1">
          <mxGeometry width="50" height="50" relative="1" as="geometry">
            <mxPoint x="729.31" y="891" as="sourcePoint" />
            <mxPoint x="728.97" y="932" as="targetPoint" />
          </mxGeometry>
        </mxCell>
        <mxCell id="mI0G9RqRu6ml6arS59rm-4" value="&lt;span style=&quot;font-size: 18px;&quot;&gt;Tipo&lt;/span&gt;" style="text;html=1;strokeColor=none;fillColor=none;align=center;verticalAlign=middle;whiteSpace=wrap;rounded=0;" parent="1" vertex="1">
          <mxGeometry x="704.31" y="843" width="50" height="30" as="geometry" />
        </mxCell>
        <mxCell id="mI0G9RqRu6ml6arS59rm-5" value="" style="ellipse;whiteSpace=wrap;html=1;fillColor=#FFFFFF;direction=south;gradientColor=none;" parent="1" vertex="1">
          <mxGeometry x="719.31" y="875.5" width="20" height="20" as="geometry" />
        </mxCell>
        <mxCell id="mI0G9RqRu6ml6arS59rm-8" value="&lt;span style=&quot;font-size: 18px;&quot;&gt;IDDisp&lt;/span&gt;" style="text;html=1;strokeColor=none;fillColor=none;align=center;verticalAlign=middle;whiteSpace=wrap;rounded=0;" parent="1" vertex="1">
          <mxGeometry x="809.31" y="840.5" width="50" height="30" as="geometry" />
        </mxCell>
        <mxCell id="mI0G9RqRu6ml6arS59rm-11" value="" style="ellipse;whiteSpace=wrap;html=1;fillColor=#FFFFFF;direction=south;gradientColor=none;" parent="1" vertex="1">
          <mxGeometry x="1180" y="420" width="20" height="20" as="geometry" />
        </mxCell>
        <mxCell id="mI0G9RqRu6ml6arS59rm-14" value="" style="ellipse;whiteSpace=wrap;html=1;fillColor=#FFFFFF;direction=south;gradientColor=none;" parent="1" vertex="1">
          <mxGeometry x="1230.5" y="424.44" width="20" height="20" as="geometry" />
        </mxCell>
        <mxCell id="mI0G9RqRu6ml6arS59rm-16" value="&lt;font style=&quot;font-size: 10px;&quot;&gt;(0,1)&lt;/font&gt;" style="text;html=1;strokeColor=none;fillColor=none;align=center;verticalAlign=middle;whiteSpace=wrap;rounded=0;" parent="1" vertex="1">
          <mxGeometry x="1809" y="255" width="50" height="30" as="geometry" />
        </mxCell>
        <mxCell id="mI0G9RqRu6ml6arS59rm-18" value="" style="endArrow=none;html=1;rounded=0;entryX=1;entryY=0;entryDx=0;entryDy=0;" parent="1" source="mI0G9RqRu6ml6arS59rm-23" target="1GqtW3D0vnaD6hVMnLZm-3" edge="1">
          <mxGeometry width="50" height="50" relative="1" as="geometry">
            <mxPoint x="663.5" y="220" as="sourcePoint" />
            <mxPoint x="613.5000000000002" y="260" as="targetPoint" />
          </mxGeometry>
        </mxCell>
        <mxCell id="mI0G9RqRu6ml6arS59rm-20" value="&lt;span style=&quot;font-size: 18px;&quot;&gt;PartecipaProgFin&lt;/span&gt;" style="text;html=1;strokeColor=none;fillColor=none;align=center;verticalAlign=middle;whiteSpace=wrap;rounded=0;" parent="1" vertex="1">
          <mxGeometry x="704.31" y="185" width="90" height="40" as="geometry" />
        </mxCell>
        <mxCell id="mI0G9RqRu6ml6arS59rm-23" value="" style="ellipse;whiteSpace=wrap;html=1;fillColor=#FFFFFF;direction=south;gradientColor=none;" parent="1" vertex="1">
          <mxGeometry x="697.5" y="220.69" width="20" height="20" as="geometry" />
        </mxCell>
        <mxCell id="mI0G9RqRu6ml6arS59rm-25" value="FA PARTE" style="rhombus;whiteSpace=wrap;html=1;" parent="1" vertex="1">
          <mxGeometry x="1490" y="480" width="80" height="80" as="geometry" />
        </mxCell>
        <mxCell id="mI0G9RqRu6ml6arS59rm-26" value="" style="endArrow=none;html=1;rounded=0;entryX=1;entryY=0.5;entryDx=0;entryDy=0;exitX=0.25;exitY=1;exitDx=0;exitDy=0;" parent="1" source="1GqtW3D0vnaD6hVMnLZm-1" target="mI0G9RqRu6ml6arS59rm-25" edge="1">
          <mxGeometry width="50" height="50" relative="1" as="geometry">
            <mxPoint x="1670" y="340" as="sourcePoint" />
            <mxPoint x="1585.91" y="560" as="targetPoint" />
            <Array as="points">
              <mxPoint x="1680" y="520" />
            </Array>
          </mxGeometry>
        </mxCell>
        <mxCell id="mI0G9RqRu6ml6arS59rm-30" value="" style="endArrow=none;html=1;rounded=0;exitX=1;exitY=0.25;exitDx=0;exitDy=0;entryX=0;entryY=0.5;entryDx=0;entryDy=0;" parent="1" source="1GqtW3D0vnaD6hVMnLZm-8" target="mI0G9RqRu6ml6arS59rm-25" edge="1">
          <mxGeometry width="50" height="50" relative="1" as="geometry">
            <mxPoint x="1322.8200000000002" y="596" as="sourcePoint" />
            <mxPoint x="1322.8200000000002" y="526" as="targetPoint" />
            <Array as="points">
              <mxPoint x="1360" y="520" />
            </Array>
          </mxGeometry>
        </mxCell>
        <mxCell id="mI0G9RqRu6ml6arS59rm-31" value="E&#39; RIFERIMENTO" style="rhombus;whiteSpace=wrap;html=1;" parent="1" vertex="1">
          <mxGeometry x="794.31" y="410" width="80" height="80" as="geometry" />
        </mxCell>
        <mxCell id="mI0G9RqRu6ml6arS59rm-32" value="" style="endArrow=none;html=1;rounded=0;exitX=0;exitY=0.25;exitDx=0;exitDy=0;entryX=1;entryY=0.5;entryDx=0;entryDy=0;" parent="1" source="1GqtW3D0vnaD6hVMnLZm-8" target="mI0G9RqRu6ml6arS59rm-31" edge="1">
          <mxGeometry width="50" height="50" relative="1" as="geometry">
            <mxPoint x="1006" y="380" as="sourcePoint" />
            <mxPoint x="870" y="450" as="targetPoint" />
            <Array as="points">
              <mxPoint x="1000" y="520" />
              <mxPoint x="1000" y="450" />
            </Array>
          </mxGeometry>
        </mxCell>
        <mxCell id="mI0G9RqRu6ml6arS59rm-33" value="" style="endArrow=none;html=1;rounded=0;exitX=0.935;exitY=1.01;exitDx=0;exitDy=0;entryX=0;entryY=0.5;entryDx=0;entryDy=0;exitPerimeter=0;" parent="1" source="1GqtW3D0vnaD6hVMnLZm-3" target="mI0G9RqRu6ml6arS59rm-31" edge="1">
          <mxGeometry width="50" height="50" relative="1" as="geometry">
            <mxPoint x="615" y="536" as="sourcePoint" />
            <mxPoint x="688.8200000000002" y="546" as="targetPoint" />
            <Array as="points">
              <mxPoint x="650" y="450" />
            </Array>
          </mxGeometry>
        </mxCell>
        <mxCell id="mI0G9RqRu6ml6arS59rm-34" value="&lt;font style=&quot;font-size: 14px;&quot;&gt;(1,1)&lt;/font&gt;" style="text;html=1;strokeColor=none;fillColor=none;align=center;verticalAlign=middle;whiteSpace=wrap;rounded=0;" parent="1" vertex="1">
          <mxGeometry x="1289.5" y="490" width="46" height="20" as="geometry" />
        </mxCell>
        <mxCell id="mI0G9RqRu6ml6arS59rm-36" value="&lt;font style=&quot;font-size: 14px;&quot;&gt;(1,N)&lt;/font&gt;" style="text;html=1;strokeColor=none;fillColor=none;align=center;verticalAlign=middle;whiteSpace=wrap;rounded=0;" parent="1" vertex="1">
          <mxGeometry x="1634" y="370" width="46" height="20" as="geometry" />
        </mxCell>
        <mxCell id="mI0G9RqRu6ml6arS59rm-39" value="" style="ellipse;whiteSpace=wrap;html=1;fillColor=#000000;direction=south;" parent="1" vertex="1">
          <mxGeometry x="910" y="490" width="20" height="20" as="geometry" />
        </mxCell>
        <mxCell id="mI0G9RqRu6ml6arS59rm-44" value="SPECIE" style="rounded=0;whiteSpace=wrap;html=1;" parent="1" vertex="1">
          <mxGeometry x="1141" y="1260" width="160" height="80" as="geometry" />
        </mxCell>
        <mxCell id="mI0G9RqRu6ml6arS59rm-45" value="" style="ellipse;whiteSpace=wrap;html=1;fillColor=#FFFFFF;direction=south;gradientColor=none;" parent="1" vertex="1">
          <mxGeometry x="1340" y="1300" width="20" height="20" as="geometry" />
        </mxCell>
        <mxCell id="mI0G9RqRu6ml6arS59rm-46" value="&lt;span style=&quot;font-size: 18px;&quot;&gt;Scopo&lt;/span&gt;" style="text;html=1;strokeColor=none;fillColor=none;align=center;verticalAlign=middle;whiteSpace=wrap;rounded=0;" parent="1" vertex="1">
          <mxGeometry x="1362" y="1265" width="50" height="30" as="geometry" />
        </mxCell>
        <mxCell id="mI0G9RqRu6ml6arS59rm-47" value="" style="endArrow=none;html=1;rounded=0;entryX=0.194;entryY=-0.012;entryDx=0;entryDy=0;entryPerimeter=0;" parent="1" source="mI0G9RqRu6ml6arS59rm-61" target="mI0G9RqRu6ml6arS59rm-44" edge="1">
          <mxGeometry width="50" height="50" relative="1" as="geometry">
            <mxPoint x="1116.5" y="1250" as="sourcePoint" />
            <mxPoint x="1140" y="1260" as="targetPoint" />
          </mxGeometry>
        </mxCell>
        <mxCell id="mI0G9RqRu6ml6arS59rm-50" value="" style="endArrow=none;html=1;rounded=0;entryX=1;entryY=0;entryDx=0;entryDy=0;" parent="1" source="mI0G9RqRu6ml6arS59rm-52" target="mI0G9RqRu6ml6arS59rm-44" edge="1">
          <mxGeometry width="50" height="50" relative="1" as="geometry">
            <mxPoint x="1253.16" y="1240" as="sourcePoint" />
            <mxPoint x="1286.5" y="1270" as="targetPoint" />
          </mxGeometry>
        </mxCell>
        <mxCell id="mI0G9RqRu6ml6arS59rm-52" value="" style="ellipse;whiteSpace=wrap;html=1;fillColor=#FFFFFF;direction=south;gradientColor=none;" parent="1" vertex="1">
          <mxGeometry x="1318.5" y="1231" width="20" height="20" as="geometry" />
        </mxCell>
        <mxCell id="mI0G9RqRu6ml6arS59rm-56" value="" style="endArrow=none;html=1;rounded=0;entryX=1;entryY=0.25;entryDx=0;entryDy=0;" parent="1" source="mI0G9RqRu6ml6arS59rm-57" target="mI0G9RqRu6ml6arS59rm-44" edge="1">
          <mxGeometry width="50" height="50" relative="1" as="geometry">
            <mxPoint x="1308.5" y="1260" as="sourcePoint" />
            <mxPoint x="1301.6600000000003" y="1280" as="targetPoint" />
          </mxGeometry>
        </mxCell>
        <mxCell id="mI0G9RqRu6ml6arS59rm-57" value="" style="ellipse;whiteSpace=wrap;html=1;fillColor=#FFFFFF;direction=south;gradientColor=none;" parent="1" vertex="1">
          <mxGeometry x="1338.5" y="1270" width="20" height="20" as="geometry" />
        </mxCell>
        <mxCell id="mI0G9RqRu6ml6arS59rm-59" value="" style="endArrow=none;html=1;rounded=0;exitX=1.004;exitY=0.605;exitDx=0;exitDy=0;exitPerimeter=0;entryX=0.5;entryY=1;entryDx=0;entryDy=0;" parent="1" target="mI0G9RqRu6ml6arS59rm-45" edge="1">
          <mxGeometry width="50" height="50" relative="1" as="geometry">
            <mxPoint x="1301.64" y="1309.4" as="sourcePoint" />
            <mxPoint x="1320" y="1301" as="targetPoint" />
          </mxGeometry>
        </mxCell>
        <mxCell id="mI0G9RqRu6ml6arS59rm-60" value="" style="endArrow=none;html=1;rounded=0;entryX=-0.009;entryY=0.413;entryDx=0;entryDy=0;entryPerimeter=0;" parent="1" source="mI0G9RqRu6ml6arS59rm-70" target="mI0G9RqRu6ml6arS59rm-44" edge="1">
          <mxGeometry width="50" height="50" relative="1" as="geometry">
            <mxPoint x="1096.5" y="1330" as="sourcePoint" />
            <mxPoint x="1122" y="1310" as="targetPoint" />
          </mxGeometry>
        </mxCell>
        <mxCell id="mI0G9RqRu6ml6arS59rm-61" value="" style="ellipse;whiteSpace=wrap;html=1;fillColor=#000000;direction=south;gradientColor=none;" parent="1" vertex="1">
          <mxGeometry x="1123.5" y="1221" width="20" height="20" as="geometry" />
        </mxCell>
        <mxCell id="mI0G9RqRu6ml6arS59rm-62" value="&lt;span style=&quot;font-size: 18px;&quot;&gt;NomeComune&lt;/span&gt;" style="text;html=1;strokeColor=none;fillColor=none;align=center;verticalAlign=middle;whiteSpace=wrap;rounded=0;" parent="1" vertex="1">
          <mxGeometry x="1027" y="1275" width="65" height="30" as="geometry" />
        </mxCell>
        <mxCell id="mI0G9RqRu6ml6arS59rm-63" value="&lt;span style=&quot;font-size: 18px;&quot;&gt;NomeScientifico&lt;/span&gt;" style="text;html=1;strokeColor=none;fillColor=none;align=center;verticalAlign=middle;whiteSpace=wrap;rounded=0;" parent="1" vertex="1">
          <mxGeometry x="1049.5" y="1196" width="65" height="30" as="geometry" />
        </mxCell>
        <mxCell id="mI0G9RqRu6ml6arS59rm-66" value="&lt;span style=&quot;font-size: 18px;&quot;&gt;TotRepliche&lt;/span&gt;" style="text;html=1;strokeColor=none;fillColor=none;align=center;verticalAlign=middle;whiteSpace=wrap;rounded=0;" parent="1" vertex="1">
          <mxGeometry x="1362" y="1320" width="50" height="30" as="geometry" />
        </mxCell>
        <mxCell id="mI0G9RqRu6ml6arS59rm-68" value="&lt;font style=&quot;font-size: 14px;&quot;&gt;(&lt;font color=&quot;#ff0000&quot;&gt;0&lt;/font&gt;,&lt;font color=&quot;#ff3333&quot;&gt;1&lt;/font&gt;)&lt;/font&gt;" style="text;html=1;strokeColor=none;fillColor=none;align=center;verticalAlign=middle;whiteSpace=wrap;rounded=0;" parent="1" vertex="1">
          <mxGeometry x="660" y="350" width="46" height="20" as="geometry" />
        </mxCell>
        <mxCell id="mI0G9RqRu6ml6arS59rm-69" value="&lt;font style=&quot;font-size: 14px;&quot;&gt;(1,1)&lt;/font&gt;" style="text;html=1;strokeColor=none;fillColor=none;align=center;verticalAlign=middle;whiteSpace=wrap;rounded=0;" parent="1" vertex="1">
          <mxGeometry x="1075" y="490" width="46" height="20" as="geometry" />
        </mxCell>
        <mxCell id="mI0G9RqRu6ml6arS59rm-70" value="" style="ellipse;whiteSpace=wrap;html=1;fillColor=#FFFFFF;direction=south;gradientColor=none;" parent="1" vertex="1">
          <mxGeometry x="1072" y="1255" width="20" height="20" as="geometry" />
        </mxCell>
        <mxCell id="mI0G9RqRu6ml6arS59rm-72" value="&lt;span style=&quot;font-size: 18px;&quot;&gt;Esposizione&lt;/span&gt;" style="text;html=1;strokeColor=none;fillColor=none;align=center;verticalAlign=middle;whiteSpace=wrap;rounded=0;" parent="1" vertex="1">
          <mxGeometry x="1367" y="1223" width="50" height="30" as="geometry" />
        </mxCell>
        <mxCell id="mI0G9RqRu6ml6arS59rm-73" value="GESTISCE" style="rhombus;whiteSpace=wrap;html=1;" parent="1" vertex="1">
          <mxGeometry x="1169" y="664.5" width="80" height="80" as="geometry" />
        </mxCell>
        <mxCell id="mI0G9RqRu6ml6arS59rm-74" value="" style="endArrow=none;html=1;rounded=0;entryX=0.5;entryY=0;entryDx=0;entryDy=0;" parent="1" source="1GqtW3D0vnaD6hVMnLZm-8" target="mI0G9RqRu6ml6arS59rm-73" edge="1">
          <mxGeometry width="50" height="50" relative="1" as="geometry">
            <mxPoint x="1162" y="575.9999999999998" as="sourcePoint" />
            <mxPoint x="1474.91" y="789" as="targetPoint" />
          </mxGeometry>
        </mxCell>
        <mxCell id="mI0G9RqRu6ml6arS59rm-75" value="" style="endArrow=none;html=1;rounded=0;entryX=0.5;entryY=1;entryDx=0;entryDy=0;" parent="1" source="1GqtW3D0vnaD6hVMnLZm-21" target="mI0G9RqRu6ml6arS59rm-73" edge="1">
          <mxGeometry width="50" height="50" relative="1" as="geometry">
            <mxPoint x="1174" y="900" as="sourcePoint" />
            <mxPoint x="1211.8200000000002" y="755" as="targetPoint" />
          </mxGeometry>
        </mxCell>
        <mxCell id="mI0G9RqRu6ml6arS59rm-76" value="&lt;font style=&quot;font-size: 14px;&quot;&gt;(1,1)&lt;/font&gt;" style="text;html=1;strokeColor=none;fillColor=none;align=center;verticalAlign=middle;whiteSpace=wrap;rounded=0;" parent="1" vertex="1">
          <mxGeometry x="1213" y="584" width="46" height="20" as="geometry" />
        </mxCell>
        <mxCell id="mI0G9RqRu6ml6arS59rm-77" value="&lt;font style=&quot;font-size: 14px;&quot;&gt;(1,1)&lt;/font&gt;" style="text;html=1;strokeColor=none;fillColor=none;align=center;verticalAlign=middle;whiteSpace=wrap;rounded=0;" parent="1" vertex="1">
          <mxGeometry x="1162" y="909.5" width="46" height="20" as="geometry" />
        </mxCell>
        <mxCell id="mI0G9RqRu6ml6arS59rm-79" value="" style="ellipse;whiteSpace=wrap;html=1;fillColor=#000000;direction=south;gradientColor=none;" parent="1" vertex="1">
          <mxGeometry x="1230.5" y="820.5" width="20" height="20" as="geometry" />
        </mxCell>
        <mxCell id="mI0G9RqRu6ml6arS59rm-83" value="&lt;span style=&quot;font-size: 18px;&quot;&gt;TipoSensori&lt;/span&gt;" style="text;html=1;strokeColor=none;fillColor=none;align=center;verticalAlign=middle;whiteSpace=wrap;rounded=0;" parent="1" vertex="1">
          <mxGeometry x="1876" y="790.5" width="130" height="30" as="geometry" />
        </mxCell>
        <mxCell id="mI0G9RqRu6ml6arS59rm-84" value="" style="ellipse;whiteSpace=wrap;html=1;fillColor=#FFFFFF;direction=south;gradientColor=none;" parent="1" vertex="1">
          <mxGeometry x="1870" y="795.5" width="20" height="20" as="geometry" />
        </mxCell>
        <mxCell id="mI0G9RqRu6ml6arS59rm-85" value="" style="endArrow=none;html=1;rounded=0;exitX=1;exitY=1;exitDx=0;exitDy=0;" parent="1" edge="1">
          <mxGeometry width="50" height="50" relative="1" as="geometry">
            <mxPoint x="1820" y="805.5" as="sourcePoint" />
            <mxPoint x="1870" y="805.5" as="targetPoint" />
          </mxGeometry>
        </mxCell>
        <mxCell id="mI0G9RqRu6ml6arS59rm-86" value="HA" style="rhombus;whiteSpace=wrap;html=1;" parent="1" vertex="1">
          <mxGeometry x="1700" y="561.5" width="80" height="80" as="geometry" />
        </mxCell>
        <mxCell id="mI0G9RqRu6ml6arS59rm-87" value="" style="endArrow=none;html=1;rounded=0;exitX=0.5;exitY=0;exitDx=0;exitDy=0;" parent="1" source="mI0G9RqRu6ml6arS59rm-86" edge="1">
          <mxGeometry width="50" height="50" relative="1" as="geometry">
            <mxPoint x="1919.5" y="458" as="sourcePoint" />
            <mxPoint x="1740" y="360" as="targetPoint" />
          </mxGeometry>
        </mxCell>
        <mxCell id="mI0G9RqRu6ml6arS59rm-88" value="" style="endArrow=none;html=1;rounded=0;exitX=0.5;exitY=1;exitDx=0;exitDy=0;entryX=0.5;entryY=0;entryDx=0;entryDy=0;" parent="1" source="mI0G9RqRu6ml6arS59rm-86" target="1GqtW3D0vnaD6hVMnLZm-12" edge="1">
          <mxGeometry width="50" height="50" relative="1" as="geometry">
            <mxPoint x="1528.5" y="614" as="sourcePoint" />
            <mxPoint x="1740" y="690" as="targetPoint" />
          </mxGeometry>
        </mxCell>
        <mxCell id="mI0G9RqRu6ml6arS59rm-89" value="&lt;font style=&quot;font-size: 14px;&quot;&gt;(1,1)&lt;/font&gt;" style="text;html=1;strokeColor=none;fillColor=none;align=center;verticalAlign=middle;whiteSpace=wrap;rounded=0;" parent="1" vertex="1">
          <mxGeometry x="1744" y="764.5" width="46" height="20" as="geometry" />
        </mxCell>
        <mxCell id="mI0G9RqRu6ml6arS59rm-90" value="&lt;font style=&quot;font-size: 14px;&quot;&gt;(1,N)&lt;/font&gt;" style="text;html=1;strokeColor=none;fillColor=none;align=center;verticalAlign=middle;whiteSpace=wrap;rounded=0;" parent="1" vertex="1">
          <mxGeometry x="1740" y="378" width="46" height="20" as="geometry" />
        </mxCell>
        <mxCell id="mI0G9RqRu6ml6arS59rm-91" value="&lt;font style=&quot;font-size: 14px;&quot;&gt;(1,N)&lt;/font&gt;" style="text;html=1;strokeColor=none;fillColor=none;align=center;verticalAlign=middle;whiteSpace=wrap;rounded=0;" parent="1" vertex="1">
          <mxGeometry x="1591" y="290" width="46" height="20" as="geometry" />
        </mxCell>
        <mxCell id="mI0G9RqRu6ml6arS59rm-94" value="&lt;font style=&quot;font-size: 14px;&quot;&gt;(1,1)&lt;/font&gt;" style="text;html=1;strokeColor=none;fillColor=none;align=center;verticalAlign=middle;whiteSpace=wrap;rounded=0;" parent="1" vertex="1">
          <mxGeometry x="669" y="290" width="46" height="20" as="geometry" />
        </mxCell>
        <mxCell id="mI0G9RqRu6ml6arS59rm-95" value="APPARTIENE" style="rhombus;whiteSpace=wrap;html=1;" parent="1" vertex="1">
          <mxGeometry x="1160" y="1080" width="80" height="80" as="geometry" />
        </mxCell>
        <mxCell id="mI0G9RqRu6ml6arS59rm-96" value="" style="endArrow=none;html=1;rounded=0;exitX=0.5;exitY=0;exitDx=0;exitDy=0;" parent="1" source="mI0G9RqRu6ml6arS59rm-95" edge="1">
          <mxGeometry width="50" height="50" relative="1" as="geometry">
            <mxPoint x="1210" y="1080" as="sourcePoint" />
            <mxPoint x="1200" y="1010" as="targetPoint" />
          </mxGeometry>
        </mxCell>
        <mxCell id="mI0G9RqRu6ml6arS59rm-97" value="" style="endArrow=none;html=1;rounded=0;entryX=0.369;entryY=-0.003;entryDx=0;entryDy=0;exitX=0.5;exitY=1;exitDx=0;exitDy=0;entryPerimeter=0;" parent="1" source="mI0G9RqRu6ml6arS59rm-95" target="mI0G9RqRu6ml6arS59rm-44" edge="1">
          <mxGeometry width="50" height="50" relative="1" as="geometry">
            <mxPoint x="1209" y="1160" as="sourcePoint" />
            <mxPoint x="1200" y="1260" as="targetPoint" />
          </mxGeometry>
        </mxCell>
        <mxCell id="mI0G9RqRu6ml6arS59rm-98" value="&lt;font style=&quot;font-size: 14px;&quot;&gt;(&lt;font color=&quot;#ff0000&quot;&gt;0&lt;/font&gt;,N)&lt;/font&gt;" style="text;html=1;strokeColor=none;fillColor=none;align=center;verticalAlign=middle;whiteSpace=wrap;rounded=0;" parent="1" vertex="1">
          <mxGeometry x="1198" y="1233" width="46" height="20" as="geometry" />
        </mxCell>
        <mxCell id="mI0G9RqRu6ml6arS59rm-99" value="&lt;font style=&quot;font-size: 14px;&quot;&gt;(1,1)&lt;/font&gt;" style="text;html=1;strokeColor=none;fillColor=none;align=center;verticalAlign=middle;whiteSpace=wrap;rounded=0;" parent="1" vertex="1">
          <mxGeometry x="1204.5" y="1015.5" width="46" height="20" as="geometry" />
        </mxCell>
        <mxCell id="mI0G9RqRu6ml6arS59rm-103" value="" style="ellipse;whiteSpace=wrap;html=1;fillColor=#000000;direction=south;gradientColor=none;" parent="1" vertex="1">
          <mxGeometry x="1149" y="1052" width="20" height="20" as="geometry" />
        </mxCell>
        <mxCell id="mI0G9RqRu6ml6arS59rm-109" value="" style="endArrow=none;html=1;rounded=0;entryX=1;entryY=0;entryDx=0;entryDy=0;" parent="1" source="mI0G9RqRu6ml6arS59rm-110" target="1GqtW3D0vnaD6hVMnLZm-21" edge="1">
          <mxGeometry width="50" height="50" relative="1" as="geometry">
            <mxPoint x="1267.66" y="932" as="sourcePoint" />
            <mxPoint x="1289" y="974" as="targetPoint" />
          </mxGeometry>
        </mxCell>
        <mxCell id="mI0G9RqRu6ml6arS59rm-110" value="" style="ellipse;whiteSpace=wrap;html=1;fillColor=#FFFFFF;direction=south;gradientColor=none;" parent="1" vertex="1">
          <mxGeometry x="1292" y="889.5" width="20" height="20" as="geometry" />
        </mxCell>
        <mxCell id="mI0G9RqRu6ml6arS59rm-111" value="&lt;span style=&quot;font-size: 18px;&quot;&gt;Esposizione&lt;/span&gt;" style="text;html=1;strokeColor=none;fillColor=none;align=center;verticalAlign=middle;whiteSpace=wrap;rounded=0;" parent="1" vertex="1">
          <mxGeometry x="1338.5" y="880.5" width="50" height="30" as="geometry" />
        </mxCell>
        <mxCell id="mI0G9RqRu6ml6arS59rm-112" value="E&#39; CONTENUTA" style="rhombus;whiteSpace=wrap;html=1;" parent="1" vertex="1">
          <mxGeometry x="1470" y="795.5" width="80" height="80" as="geometry" />
        </mxCell>
        <mxCell id="mI0G9RqRu6ml6arS59rm-113" value="" style="endArrow=none;html=1;rounded=0;entryX=1;entryY=0.25;entryDx=0;entryDy=0;exitX=0.5;exitY=1;exitDx=0;exitDy=0;" parent="1" source="mI0G9RqRu6ml6arS59rm-112" target="1GqtW3D0vnaD6hVMnLZm-21" edge="1">
          <mxGeometry width="50" height="50" relative="1" as="geometry">
            <mxPoint x="1470" y="920" as="sourcePoint" />
            <mxPoint x="1509" y="680.5" as="targetPoint" />
            <Array as="points">
              <mxPoint x="1510" y="950" />
            </Array>
          </mxGeometry>
        </mxCell>
        <mxCell id="mI0G9RqRu6ml6arS59rm-114" value="" style="endArrow=none;html=1;rounded=0;exitX=1;exitY=0.5;exitDx=0;exitDy=0;" parent="1" source="mI0G9RqRu6ml6arS59rm-112" target="1GqtW3D0vnaD6hVMnLZm-12" edge="1">
          <mxGeometry width="50" height="50" relative="1" as="geometry">
            <mxPoint x="1275.5" y="930.5" as="sourcePoint" />
            <mxPoint x="1531" y="1115.5" as="targetPoint" />
          </mxGeometry>
        </mxCell>
        <mxCell id="mI0G9RqRu6ml6arS59rm-135" value="PRODUCE" style="rhombus;whiteSpace=wrap;html=1;" parent="1" vertex="1">
          <mxGeometry x="544" y="813" width="80" height="80" as="geometry" />
        </mxCell>
        <mxCell id="mI0G9RqRu6ml6arS59rm-136" value="" style="endArrow=none;html=1;rounded=0;entryX=1;entryY=0.75;entryDx=0;entryDy=0;exitX=0.5;exitY=0;exitDx=0;exitDy=0;" parent="1" source="mI0G9RqRu6ml6arS59rm-135" target="9_35HUgDkUIat2iefjqO-1" edge="1">
          <mxGeometry width="50" height="50" relative="1" as="geometry">
            <mxPoint x="1040" y="840.5" as="sourcePoint" />
            <mxPoint x="618.5" y="1009" as="targetPoint" />
            <Array as="points">
              <mxPoint x="584" y="765" />
            </Array>
          </mxGeometry>
        </mxCell>
        <mxCell id="mI0G9RqRu6ml6arS59rm-137" value="" style="endArrow=none;html=1;rounded=0;exitX=0.5;exitY=1;exitDx=0;exitDy=0;entryX=0;entryY=0.5;entryDx=0;entryDy=0;" parent="1" edge="1">
          <mxGeometry width="50" height="50" relative="1" as="geometry">
            <mxPoint x="584" y="892.9999999999998" as="sourcePoint" />
            <mxPoint x="690" y="970" as="targetPoint" />
            <Array as="points">
              <mxPoint x="584" y="970" />
            </Array>
          </mxGeometry>
        </mxCell>
        <mxCell id="mI0G9RqRu6ml6arS59rm-138" value="FA" style="rhombus;whiteSpace=wrap;html=1;" parent="1" vertex="1">
          <mxGeometry x="540" y="460" width="80" height="80" as="geometry" />
        </mxCell>
        <mxCell id="mI0G9RqRu6ml6arS59rm-139" value="" style="endArrow=none;html=1;rounded=0;exitX=0.5;exitY=0;exitDx=0;exitDy=0;" parent="1" source="mI0G9RqRu6ml6arS59rm-138" target="1GqtW3D0vnaD6hVMnLZm-3" edge="1">
          <mxGeometry width="50" height="50" relative="1" as="geometry">
            <mxPoint x="661" y="391" as="sourcePoint" />
            <mxPoint x="485.04681647940083" y="270" as="targetPoint" />
          </mxGeometry>
        </mxCell>
        <mxCell id="mI0G9RqRu6ml6arS59rm-140" value="" style="endArrow=none;html=1;rounded=0;exitX=0.5;exitY=1;exitDx=0;exitDy=0;" parent="1" source="mI0G9RqRu6ml6arS59rm-138" target="9_35HUgDkUIat2iefjqO-1" edge="1">
          <mxGeometry width="50" height="50" relative="1" as="geometry">
            <mxPoint x="430" y="630" as="sourcePoint" />
            <mxPoint x="483" y="720" as="targetPoint" />
            <Array as="points">
              <mxPoint x="580" y="590" />
              <mxPoint x="418" y="590" />
            </Array>
          </mxGeometry>
        </mxCell>
        <mxCell id="mI0G9RqRu6ml6arS59rm-141" value="&lt;font style=&quot;font-size: 14px;&quot;&gt;(&lt;font color=&quot;#ff0000&quot;&gt;0&lt;/font&gt;,1)&lt;/font&gt;" style="text;html=1;strokeColor=none;fillColor=none;align=center;verticalAlign=middle;whiteSpace=wrap;rounded=0;" parent="1" vertex="1">
          <mxGeometry x="420" y="665" width="46" height="20" as="geometry" />
        </mxCell>
        <mxCell id="mI0G9RqRu6ml6arS59rm-143" value="EFFETTUA" style="rhombus;whiteSpace=wrap;html=1;" parent="1" vertex="1">
          <mxGeometry x="756" y="600" width="80" height="80" as="geometry" />
        </mxCell>
        <mxCell id="mI0G9RqRu6ml6arS59rm-144" value="" style="endArrow=none;html=1;rounded=0;entryX=0;entryY=0.75;entryDx=0;entryDy=0;exitX=1;exitY=0.5;exitDx=0;exitDy=0;" parent="1" source="mI0G9RqRu6ml6arS59rm-143" target="1GqtW3D0vnaD6hVMnLZm-8" edge="1">
          <mxGeometry width="50" height="50" relative="1" as="geometry">
            <mxPoint x="853.5" y="454" as="sourcePoint" />
            <mxPoint x="674" y="360" as="targetPoint" />
            <Array as="points">
              <mxPoint x="960" y="640" />
              <mxPoint x="960" y="560" />
            </Array>
          </mxGeometry>
        </mxCell>
        <mxCell id="mI0G9RqRu6ml6arS59rm-145" value="" style="endArrow=none;html=1;rounded=0;exitX=0;exitY=0.5;exitDx=0;exitDy=0;entryX=1;entryY=0.25;entryDx=0;entryDy=0;" parent="1" source="mI0G9RqRu6ml6arS59rm-143" target="9_35HUgDkUIat2iefjqO-1" edge="1">
          <mxGeometry width="50" height="50" relative="1" as="geometry">
            <mxPoint x="720" y="630" as="sourcePoint" />
            <mxPoint x="718" y="795" as="targetPoint" />
            <Array as="points">
              <mxPoint x="600" y="640" />
              <mxPoint x="600" y="725" />
            </Array>
          </mxGeometry>
        </mxCell>
        <mxCell id="mI0G9RqRu6ml6arS59rm-146" value="&lt;font style=&quot;font-size: 14px;&quot;&gt;(&lt;font color=&quot;#ff0000&quot;&gt;0&lt;/font&gt;,&lt;font color=&quot;#ff0000&quot;&gt;N&lt;/font&gt;)&lt;/font&gt;" style="text;html=1;strokeColor=none;fillColor=none;align=center;verticalAlign=middle;whiteSpace=wrap;rounded=0;" parent="1" vertex="1">
          <mxGeometry x="1075" y="564" width="46" height="20" as="geometry" />
        </mxCell>
        <mxCell id="mI0G9RqRu6ml6arS59rm-151" value="ASSOCIATO A&amp;nbsp;" style="rhombus;whiteSpace=wrap;html=1;" parent="1" vertex="1">
          <mxGeometry x="950" y="930" width="80" height="80" as="geometry" />
        </mxCell>
        <mxCell id="mI0G9RqRu6ml6arS59rm-152" value="" style="endArrow=none;html=1;rounded=0;entryX=1;entryY=0.5;entryDx=0;entryDy=0;exitX=0;exitY=0.5;exitDx=0;exitDy=0;" parent="1" source="mI0G9RqRu6ml6arS59rm-151" target="9_35HUgDkUIat2iefjqO-9" edge="1">
          <mxGeometry width="50" height="50" relative="1" as="geometry">
            <mxPoint x="1059.95" y="1193" as="sourcePoint" />
            <mxPoint x="517.95" y="1090.5" as="targetPoint" />
          </mxGeometry>
        </mxCell>
        <mxCell id="mI0G9RqRu6ml6arS59rm-153" value="" style="endArrow=none;html=1;rounded=0;exitX=1;exitY=0.5;exitDx=0;exitDy=0;" parent="1" source="mI0G9RqRu6ml6arS59rm-151" target="1GqtW3D0vnaD6hVMnLZm-21" edge="1">
          <mxGeometry width="50" height="50" relative="1" as="geometry">
            <mxPoint x="597.45" y="1328.5" as="sourcePoint" />
            <mxPoint x="751.95" y="1385" as="targetPoint" />
          </mxGeometry>
        </mxCell>
        <mxCell id="mI0G9RqRu6ml6arS59rm-154" value="" style="endArrow=none;html=1;rounded=0;entryX=0.206;entryY=-0.041;entryDx=0;entryDy=0;entryPerimeter=0;" parent="1" source="mI0G9RqRu6ml6arS59rm-155" target="9_35HUgDkUIat2iefjqO-1" edge="1">
          <mxGeometry width="50" height="50" relative="1" as="geometry">
            <mxPoint x="391" y="605.5899999999999" as="sourcePoint" />
            <mxPoint x="464" y="678" as="targetPoint" />
          </mxGeometry>
        </mxCell>
        <mxCell id="mI0G9RqRu6ml6arS59rm-155" value="" style="ellipse;whiteSpace=wrap;html=1;fillColor=#FFFFFF;direction=south;gradientColor=none;" parent="1" vertex="1">
          <mxGeometry x="332.5" y="615" width="20" height="20" as="geometry" />
        </mxCell>
        <mxCell id="mI0G9RqRu6ml6arS59rm-156" value="&lt;span style=&quot;font-size: 18px;&quot;&gt;ModAcquisizione&lt;/span&gt;" style="text;html=1;strokeColor=none;fillColor=none;align=center;verticalAlign=middle;whiteSpace=wrap;rounded=0;" parent="1" vertex="1">
          <mxGeometry x="237.5" y="584" width="90" height="40" as="geometry" />
        </mxCell>
        <mxCell id="mI0G9RqRu6ml6arS59rm-159" value="&lt;font style=&quot;font-size: 14px;&quot;&gt;(1,1)&lt;/font&gt;" style="text;html=1;strokeColor=none;fillColor=none;align=center;verticalAlign=middle;whiteSpace=wrap;rounded=0;" parent="1" vertex="1">
          <mxGeometry x="502.5" y="770" width="46" height="20" as="geometry" />
        </mxCell>
        <mxCell id="mI0G9RqRu6ml6arS59rm-160" value="&lt;font style=&quot;font-size: 14px;&quot;&gt;(1,N)&lt;/font&gt;" style="text;html=1;strokeColor=none;fillColor=none;align=center;verticalAlign=middle;whiteSpace=wrap;rounded=0;" parent="1" vertex="1">
          <mxGeometry x="639" y="940.5" width="46" height="20" as="geometry" />
        </mxCell>
        <mxCell id="mI0G9RqRu6ml6arS59rm-161" value="&lt;font style=&quot;font-size: 14px;&quot;&gt;(1,N)&lt;/font&gt;" style="text;html=1;strokeColor=none;fillColor=none;align=center;verticalAlign=middle;whiteSpace=wrap;rounded=0;" parent="1" vertex="1">
          <mxGeometry x="850" y="977.5" width="46" height="20" as="geometry" />
        </mxCell>
        <mxCell id="mI0G9RqRu6ml6arS59rm-164" value="" style="ellipse;whiteSpace=wrap;html=1;fillColor=#000000;direction=south;gradientColor=none;" parent="1" vertex="1">
          <mxGeometry x="794.31" y="899.5" width="20" height="20" as="geometry" />
        </mxCell>
        <mxCell id="mI0G9RqRu6ml6arS59rm-169" value="&lt;font style=&quot;font-size: 14px;&quot;&gt;(&lt;font color=&quot;#ff0000&quot;&gt;0&lt;/font&gt;,1)&lt;/font&gt;" style="text;html=1;strokeColor=none;fillColor=none;align=center;verticalAlign=middle;whiteSpace=wrap;rounded=0;" parent="1" vertex="1">
          <mxGeometry x="517" y="695" width="46" height="20" as="geometry" />
        </mxCell>
        <mxCell id="mI0G9RqRu6ml6arS59rm-170" value="&lt;font style=&quot;font-size: 14px;&quot;&gt;(1,1)&lt;/font&gt;" style="text;html=1;strokeColor=none;fillColor=none;align=center;verticalAlign=middle;whiteSpace=wrap;rounded=0;" parent="1" vertex="1">
          <mxGeometry x="1068" y="940.5" width="46" height="20" as="geometry" />
        </mxCell>
        <mxCell id="mI0G9RqRu6ml6arS59rm-171" value="&lt;font style=&quot;font-size: 14px;&quot;&gt;(1,1)&lt;/font&gt;" style="text;html=1;strokeColor=none;fillColor=none;align=center;verticalAlign=middle;whiteSpace=wrap;rounded=0;" parent="1" vertex="1">
          <mxGeometry x="1294" y="924.5" width="46" height="20" as="geometry" />
        </mxCell>
        <mxCell id="mI0G9RqRu6ml6arS59rm-172" value="&lt;font style=&quot;font-size: 14px;&quot;&gt;(1,N)&lt;/font&gt;" style="text;html=1;strokeColor=none;fillColor=none;align=center;verticalAlign=middle;whiteSpace=wrap;rounded=0;" parent="1" vertex="1">
          <mxGeometry x="1609" y="807" width="46" height="20" as="geometry" />
        </mxCell>
        <mxCell id="3pxgKF3K3UY6ERB2-cvl-1" value="" style="endArrow=none;html=1;rounded=0;" parent="1" edge="1">
          <mxGeometry width="50" height="50" relative="1" as="geometry">
            <mxPoint x="1230" y="829" as="sourcePoint" />
            <mxPoint x="1235" y="621.5" as="targetPoint" />
            <Array as="points">
              <mxPoint x="1148.5" y="828.5" />
              <mxPoint x="1148.5" y="621.5" />
            </Array>
          </mxGeometry>
        </mxCell>
        <mxCell id="3pxgKF3K3UY6ERB2-cvl-2" value="" style="endArrow=none;html=1;rounded=0;entryX=0.513;entryY=0.879;entryDx=0;entryDy=0;entryPerimeter=0;" parent="1" edge="1">
          <mxGeometry width="50" height="50" relative="1" as="geometry">
            <mxPoint x="1068" y="990" as="sourcePoint" />
            <mxPoint x="796.7299999999998" y="908.76" as="targetPoint" />
            <Array as="points">
              <mxPoint x="1068" y="910" />
              <mxPoint x="918" y="910" />
            </Array>
          </mxGeometry>
        </mxCell>
        <mxCell id="3pxgKF3K3UY6ERB2-cvl-3" value="" style="endArrow=none;html=1;rounded=0;" parent="1" edge="1">
          <mxGeometry width="50" height="50" relative="1" as="geometry">
            <mxPoint x="1160" y="1190" as="sourcePoint" />
            <mxPoint x="1170" y="1060" as="targetPoint" />
            <Array as="points">
              <mxPoint x="1250" y="1190" />
              <mxPoint x="1250" y="1060" />
            </Array>
          </mxGeometry>
        </mxCell>
        <mxCell id="3pxgKF3K3UY6ERB2-cvl-4" value="" style="endArrow=none;html=1;rounded=0;" parent="1" edge="1">
          <mxGeometry width="50" height="50" relative="1" as="geometry">
            <mxPoint x="730" y="490" as="sourcePoint" />
            <mxPoint x="920" y="490" as="targetPoint" />
            <Array as="points">
              <mxPoint x="730" y="390" />
              <mxPoint x="920" y="390" />
            </Array>
          </mxGeometry>
        </mxCell>
        <mxCell id="PH95ImstwBu5i2bBudpi-1" value="" style="endArrow=none;html=1;rounded=0;" parent="1" edge="1">
          <mxGeometry width="50" height="50" relative="1" as="geometry">
            <mxPoint x="420" y="870" as="sourcePoint" />
            <mxPoint x="420" y="784.5" as="targetPoint" />
          </mxGeometry>
        </mxCell>
        <mxCell id="PH95ImstwBu5i2bBudpi-3" value="ACQUSISCE" style="rhombus;whiteSpace=wrap;html=1;" parent="1" vertex="1">
          <mxGeometry x="380" y="869.5" width="80" height="80" as="geometry" />
        </mxCell>
        <mxCell id="PH95ImstwBu5i2bBudpi-4" value="" style="endArrow=none;html=1;rounded=0;entryX=0.5;entryY=1;entryDx=0;entryDy=0;exitX=0.542;exitY=0.075;exitDx=0;exitDy=0;exitPerimeter=0;" parent="1" source="PH95ImstwBu5i2bBudpi-6" target="PH95ImstwBu5i2bBudpi-3" edge="1">
          <mxGeometry width="50" height="50" relative="1" as="geometry">
            <mxPoint x="422.5" y="1064" as="sourcePoint" />
            <mxPoint x="422.5" y="1002.5" as="targetPoint" />
          </mxGeometry>
        </mxCell>
        <mxCell id="9Q-TVP5sQ0k48pNDZRx9-20" value="" style="endArrow=none;html=1;rounded=0;entryX=0.627;entryY=1.014;entryDx=0;entryDy=0;entryPerimeter=0;" parent="1" source="xbkp54h4-bro_WAhH61t-56" target="PH95ImstwBu5i2bBudpi-6" edge="1">
          <mxGeometry width="50" height="50" relative="1" as="geometry">
            <mxPoint x="484.5" y="1238" as="sourcePoint" />
            <mxPoint x="446.0150000000001" y="1124.84" as="targetPoint" />
          </mxGeometry>
        </mxCell>
        <mxCell id="9Q-TVP5sQ0k48pNDZRx9-23" value="" style="endArrow=none;html=1;rounded=0;exitX=0.18;exitY=0.011;exitDx=0;exitDy=0;exitPerimeter=0;" parent="1" source="PH95ImstwBu5i2bBudpi-6" target="9Q-TVP5sQ0k48pNDZRx9-22" edge="1">
          <mxGeometry width="50" height="50" relative="1" as="geometry">
            <mxPoint x="362.5" y="1064" as="sourcePoint" />
            <mxPoint x="362.5" y="1004" as="targetPoint" />
          </mxGeometry>
        </mxCell>
        <mxCell id="9Q-TVP5sQ0k48pNDZRx9-22" value="" style="ellipse;whiteSpace=wrap;html=1;aspect=fixed;fillColor=#000000;" parent="1" vertex="1">
          <mxGeometry x="342.5" y="1003.5" width="20" height="20" as="geometry" />
        </mxCell>
        <mxCell id="9Q-TVP5sQ0k48pNDZRx9-25" value="&lt;span style=&quot;font-size: 18px;&quot;&gt;CodInfo&lt;/span&gt;" style="text;html=1;strokeColor=none;fillColor=none;align=center;verticalAlign=middle;whiteSpace=wrap;rounded=0;" parent="1" vertex="1">
          <mxGeometry x="322.5" y="981" width="45" height="25" as="geometry" />
        </mxCell>
        <mxCell id="9Q-TVP5sQ0k48pNDZRx9-26" value="" style="endArrow=none;html=1;rounded=0;" parent="1" source="xbkp54h4-bro_WAhH61t-54" target="PH95ImstwBu5i2bBudpi-6" edge="1">
          <mxGeometry width="50" height="50" relative="1" as="geometry">
            <mxPoint x="432.5" y="1250" as="sourcePoint" />
            <mxPoint x="426.25" y="1124" as="targetPoint" />
          </mxGeometry>
        </mxCell>
        <mxCell id="PH95ImstwBu5i2bBudpi-6" value="INFOAMBIENTALI" style="rounded=0;whiteSpace=wrap;html=1;" parent="1" vertex="1">
          <mxGeometry x="335" y="1064" width="160" height="80" as="geometry" />
        </mxCell>
        <mxCell id="9Q-TVP5sQ0k48pNDZRx9-28" value="&lt;font style=&quot;font-size: 14px;&quot;&gt;(1,N)&lt;/font&gt;" style="text;html=1;strokeColor=none;fillColor=none;align=center;verticalAlign=middle;whiteSpace=wrap;rounded=0;" parent="1" vertex="1">
          <mxGeometry x="372.5" y="790" width="46" height="20" as="geometry" />
        </mxCell>
        <mxCell id="9Q-TVP5sQ0k48pNDZRx9-29" value="&lt;font style=&quot;font-size: 14px;&quot;&gt;(1,1)&lt;/font&gt;" style="text;html=1;strokeColor=none;fillColor=none;align=center;verticalAlign=middle;whiteSpace=wrap;rounded=0;" parent="1" vertex="1">
          <mxGeometry x="422.5" y="1041" width="46" height="20" as="geometry" />
        </mxCell>
        <mxCell id="9Q-TVP5sQ0k48pNDZRx9-31" value="" style="endArrow=none;html=1;rounded=0;" parent="1" edge="1">
          <mxGeometry width="50" height="50" relative="1" as="geometry">
            <mxPoint x="1440" y="360" as="sourcePoint" />
            <mxPoint x="960" y="360" as="targetPoint" />
            <Array as="points">
              <mxPoint x="1440" y="250" />
              <mxPoint x="960" y="250" />
            </Array>
          </mxGeometry>
        </mxCell>
        <mxCell id="9Q-TVP5sQ0k48pNDZRx9-33" value="" style="ellipse;whiteSpace=wrap;html=1;fillColor=#000000;direction=south;" parent="1" vertex="1">
          <mxGeometry x="1430" y="360" width="20" height="20" as="geometry" />
        </mxCell>
        <mxCell id="9Q-TVP5sQ0k48pNDZRx9-39" value="" style="ellipse;whiteSpace=wrap;html=1;fillColor=#FFFFFF;direction=south;gradientColor=none;" parent="1" vertex="1">
          <mxGeometry x="629" y="180" width="20" height="20" as="geometry" />
        </mxCell>
        <mxCell id="9Q-TVP5sQ0k48pNDZRx9-40" value="" style="endArrow=none;html=1;rounded=0;exitX=1;exitY=0.5;exitDx=0;exitDy=0;entryX=0;entryY=0;entryDx=0;entryDy=0;" parent="1" source="9Q-TVP5sQ0k48pNDZRx9-39" edge="1">
          <mxGeometry width="50" height="50" relative="1" as="geometry">
            <mxPoint x="629" y="219.99999999999994" as="sourcePoint" />
            <mxPoint x="639" y="280" as="targetPoint" />
          </mxGeometry>
        </mxCell>
        <mxCell id="9Q-TVP5sQ0k48pNDZRx9-41" value="&lt;span style=&quot;font-size: 18px;&quot;&gt;ReferenteProg&lt;/span&gt;" style="text;html=1;strokeColor=none;fillColor=none;align=center;verticalAlign=middle;whiteSpace=wrap;rounded=0;" parent="1" vertex="1">
          <mxGeometry x="655" y="150" width="60" height="40" as="geometry" />
        </mxCell>
        <mxCell id="TkYwy488-u0RMe4aOZgZ-1" value="&lt;font style=&quot;font-size: 10px;&quot;&gt;(0,1)&lt;/font&gt;" style="text;html=1;strokeColor=none;fillColor=none;align=center;verticalAlign=middle;whiteSpace=wrap;rounded=0;" parent="1" vertex="1">
          <mxGeometry x="530" y="245" width="50" height="30" as="geometry" />
        </mxCell>
        <mxCell id="TkYwy488-u0RMe4aOZgZ-6" value="" style="ellipse;whiteSpace=wrap;html=1;fillColor=#FFFFFF;direction=south;gradientColor=none;" parent="1" vertex="1">
          <mxGeometry x="1870" y="858.5" width="20" height="20" as="geometry" />
        </mxCell>
        <mxCell id="TkYwy488-u0RMe4aOZgZ-7" value="&lt;span style=&quot;font-size: 18px;&quot;&gt;AdattoControllo&lt;/span&gt;" style="text;html=1;strokeColor=none;fillColor=none;align=center;verticalAlign=middle;whiteSpace=wrap;rounded=0;" parent="1" vertex="1">
          <mxGeometry x="1890" y="853.5" width="140" height="30" as="geometry" />
        </mxCell>
        <mxCell id="TkYwy488-u0RMe4aOZgZ-8" value="" style="endArrow=none;html=1;rounded=0;exitX=1;exitY=1;exitDx=0;exitDy=0;" parent="1" edge="1">
          <mxGeometry width="50" height="50" relative="1" as="geometry">
            <mxPoint x="1820" y="868.5" as="sourcePoint" />
            <mxPoint x="1870" y="868.5" as="targetPoint" />
          </mxGeometry>
        </mxCell>
        <mxCell id="1RjLcbqz8yH-gRdYfJaw-1" value="" style="endArrow=none;html=1;rounded=0;" parent="1" source="1RjLcbqz8yH-gRdYfJaw-2" edge="1">
          <mxGeometry width="50" height="50" relative="1" as="geometry">
            <mxPoint x="395" y="982" as="sourcePoint" />
            <mxPoint x="395" y="842" as="targetPoint" />
            <Array as="points" />
          </mxGeometry>
        </mxCell>
        <mxCell id="1RjLcbqz8yH-gRdYfJaw-3" value="" style="endArrow=none;html=1;rounded=0;" parent="1" edge="1">
          <mxGeometry width="50" height="50" relative="1" as="geometry">
            <mxPoint x="400" y="990" as="sourcePoint" />
            <mxPoint x="400" y="839.5" as="targetPoint" />
            <Array as="points">
              <mxPoint x="466" y="990" />
              <mxPoint x="466" y="839.5" />
            </Array>
          </mxGeometry>
        </mxCell>
        <mxCell id="1RjLcbqz8yH-gRdYfJaw-2" value="" style="ellipse;whiteSpace=wrap;html=1;fillColor=#000000;direction=south;gradientColor=none;" parent="1" vertex="1">
          <mxGeometry x="388.75" y="830.5" width="20" height="20" as="geometry" />
        </mxCell>
        <mxCell id="1RjLcbqz8yH-gRdYfJaw-5" value="&lt;font style=&quot;font-size: 13px;&quot;&gt;(0,1)&lt;/font&gt;" style="text;html=1;strokeColor=none;fillColor=none;align=center;verticalAlign=middle;whiteSpace=wrap;rounded=0;fontSize=13;" parent="1" vertex="1">
          <mxGeometry x="241.25" y="795" width="50" height="30" as="geometry" />
        </mxCell>
        <mxCell id="KoG7FEM-wuRYnveiXtvF-1" value="" style="ellipse;whiteSpace=wrap;html=1;fillColor=#FFFFFF;direction=south;gradientColor=none;" parent="1" vertex="1">
          <mxGeometry x="824.31" y="873" width="20" height="20" as="geometry" />
        </mxCell>
        <mxCell id="KoG7FEM-wuRYnveiXtvF-3" value="" style="ellipse;whiteSpace=wrap;html=1;fillColor=#000000;direction=south;gradientColor=none;" parent="1" vertex="1">
          <mxGeometry x="1353.5" y="989.5" width="20" height="20" as="geometry" />
        </mxCell>
        <mxCell id="w05VstKfJsAB3csT7oaa-2" value="&lt;font style=&quot;font-size: 14px;&quot;&gt;(&lt;font color=&quot;#ff0000&quot;&gt;0&lt;/font&gt;,&lt;font color=&quot;#ff0000&quot;&gt;N&lt;/font&gt;)&lt;/font&gt;" style="text;html=1;strokeColor=none;fillColor=none;align=center;verticalAlign=middle;whiteSpace=wrap;rounded=0;" vertex="1" parent="1">
          <mxGeometry x="521.5" y="370" width="46" height="20" as="geometry" />
        </mxCell>
        <mxCell id="w05VstKfJsAB3csT7oaa-3" style="edgeStyle=orthogonalEdgeStyle;rounded=0;orthogonalLoop=1;jettySize=auto;html=1;exitX=0.5;exitY=1;exitDx=0;exitDy=0;" edge="1" parent="1" source="mI0G9RqRu6ml6arS59rm-77" target="mI0G9RqRu6ml6arS59rm-77">
          <mxGeometry relative="1" as="geometry" />
        </mxCell>
      </root>
    </mxGraphModel>
  </diagram>
</mxfile>
